<svg width="557" height="554" viewBox="0 0 557 554" fill="none" xmlns="http://www.w3.org/2000/svg">
<g clip-path="url(#clip0_93_2815)">
<path d="M543.994 497.139C540.943 502.209 537.497 507.031 533.686 511.556C515.211 533.928 488.516 547.933 459.609 550.41C431.239 552.766 403.088 543.82 381.283 525.509C360.065 507.593 345.41 481.194 343.114 453.362C340.515 424.016 349.779 394.853 368.836 372.388C387.081 350.831 413.225 337.517 441.387 335.44C485.779 331.856 523.663 353.865 546.094 391.693C563.5 433.5 558 470.5 543.994 497.139Z" fill="black"/>
<path d="M427.951 0.560044C428.365 0.508409 428.781 0.468375 429.198 0.441107C454.685 -1.30581 484.534 11.0224 503.59 27.8197C525.182 46.8245 538.292 73.6635 540.015 102.378C541.813 131.793 531.987 160.343 512.2 182.077C487.716 208.966 463.121 235.799 438.579 262.631L294.631 420.014L231.013 489.608C220.518 501.084 202.175 522.399 190.65 531.206C173.098 544.649 151.874 552.435 129.794 553.532C101.687 555.11 72.8526 544.545 51.9797 525.718C30.3944 506.433 17.4685 479.274 16.1106 450.356C14.7642 424.863 22.4647 399.713 37.853 379.346C44.4613 370.617 55.0866 359.622 62.6862 351.318L102.821 307.442C156.161 249.61 208.995 190.158 262.718 132.834C238.2 134.962 225.725 144.368 209.825 162.648C202.127 171.499 197.035 181.209 189.527 189.914C171.009 211.515 144.638 224.834 116.265 226.914C87.7009 229.088 59.4459 219.802 37.7388 201.105C16.2115 182.277 2.22755 156.034 0.363174 127.336C-1.49192 98.1766 8.2824 69.4706 27.5451 47.5033C47.0055 25.4491 72.6502 13.5282 101.887 11.7093C134.673 9.55685 166.607 22.7135 188.365 47.338C200.158 60.7059 208.686 74.4067 223.027 86.8504C242.265 103.801 263.543 107.376 287.088 96.9913C304.674 89.2343 304.45 86.406 317.305 73.0404C334.053 55.6264 349.498 34.6315 368.843 20.318C386.026 7.60513 406.845 1.9165 427.951 0.560044Z" fill="black"/>
</g>
<defs>
<clipPath id="clip0_93_2815">
<rect width="557" height="554" fill="white"/>
</clipPath>
</defs>
</svg>
