<svg width="1188" height="720" viewBox="0 0 1188 720" fill="none" xmlns="http://www.w3.org/2000/svg">
<path d="M760.245 119.731C765.007 118.889 772.014 119.28 776.933 119.144C818.107 118.009 855.406 142.633 876.417 176.945C882.496 186.795 887.763 207.299 895.96 214.674C909.296 226.672 924.645 189.196 929.094 181.1C931.855 176.032 934.999 171.184 938.497 166.597C974.38 119.511 1043.64 111.199 1089.99 147.668C1112.76 165.721 1127.45 192.075 1130.82 220.944C1134.17 249.187 1126 277.591 1108.16 299.739C1090.28 322.416 1064.04 336.96 1035.34 340.105C991.69 344.83 949.513 322.711 928.577 284.115C922.371 272.529 919.766 256.852 909.551 248.824C895.565 237.837 886.928 260.82 886.887 271.486L886.986 467.626L887.026 519.943C887.032 533.69 887.63 548.252 885.269 561.718C882.252 578.726 875.164 594.751 864.612 608.426C844.919 634.087 819.459 646.654 787.885 650.768C762.507 652.618 734.17 648.76 713.136 634.029C698.658 623.882 682.038 613.77 673.604 598.035C666.887 587.296 661.84 564.714 652.89 556.449C639.977 544.529 620.794 586.815 616.994 593.139C613.943 598.209 610.497 603.03 606.686 607.556C588.211 629.928 561.516 643.933 532.609 646.41C504.239 648.766 476.088 639.82 454.283 621.509C433.065 603.593 418.41 577.193 416.114 549.362C413.515 520.016 422.779 490.853 441.836 468.388C460.081 446.831 486.225 433.517 514.387 431.44C558.779 427.856 596.663 449.865 619.094 487.693C625.811 499.018 631.27 514.379 641.578 522.942C643.748 524.741 645.813 526.012 648.759 525.666C654.868 524.947 659.085 516.995 661.26 511.971C664.799 503.81 663.023 470.969 663.012 459.79V294.663L662.983 247.99C662.977 234.283 662.351 220.809 664.857 207.31C668.082 190.274 675.35 174.263 686.058 160.627C704.777 136.659 730.33 123.421 760.245 119.731Z" fill="#B8C1CE"/>
<path d="M500.951 96.56C501.365 96.5084 501.781 96.4684 502.198 96.4411C527.685 94.6942 557.534 107.022 576.59 123.82C598.182 142.825 611.292 169.664 613.015 198.378C614.813 227.793 604.987 256.343 585.2 278.077C560.716 304.966 536.121 331.799 511.579 358.631L367.631 516.014L304.013 585.608C293.518 597.084 275.175 618.399 263.65 627.206C246.098 640.649 224.874 648.435 202.794 649.532C174.687 651.11 145.853 640.545 124.98 621.718C103.394 602.433 90.4685 575.274 89.1106 546.356C87.7642 520.863 95.4647 495.713 110.853 475.346C117.461 466.617 128.087 455.622 135.686 447.318L175.821 403.442C229.161 345.61 281.995 286.158 335.718 228.834C311.2 230.962 298.725 240.368 282.825 258.648C275.127 267.499 270.035 277.209 262.527 285.914C244.009 307.515 217.638 320.834 189.265 322.914C160.701 325.088 132.446 315.802 110.739 297.105C89.2115 278.277 75.2275 252.034 73.3632 223.336C71.5081 194.177 81.2824 165.471 100.545 143.503C120.006 121.449 145.65 109.528 174.887 107.709C207.673 105.557 239.607 118.714 261.365 143.338C273.158 156.706 281.686 170.407 296.027 182.85C315.265 199.801 336.543 203.376 360.088 192.991C377.674 185.234 377.45 182.406 390.305 169.04C407.053 151.626 422.498 130.632 441.843 116.318C459.026 103.605 479.845 97.9165 500.951 96.56Z" fill="#B8C1CE"/>
</svg>
