<svg width="1440" height="572" viewBox="0 0 1440 572" fill="none" xmlns="http://www.w3.org/2000/svg">
<g clip-path="url(#clip0_146_237)">
<rect width="1440" height="572" fill="#121619"/>
<path d="M236.226 358.484L233.274 358.052V356.252H238.134C238.95 356.252 239.982 356.204 241.23 356.108C242.382 356.012 243.234 355.964 243.786 355.964C247.098 355.964 249.462 356.48 250.878 357.512C252.318 358.544 253.038 360.056 253.038 362.048C253.038 363.752 252.546 365.216 251.562 366.44C250.578 367.664 249.234 368.432 247.53 368.744C249.834 368.696 251.646 369.236 252.966 370.364C254.286 371.492 254.946 373.028 254.946 374.972C254.946 377.396 254.082 379.376 252.354 380.912C250.65 382.448 247.818 383.216 243.858 383.216C242.994 383.216 242.166 383.18 241.374 383.108C239.502 383.036 238.386 383 238.026 383H233.238V381.236L236.226 380.876V358.484ZM240.042 368.06C240.378 368.084 241.062 368.096 242.094 368.096H244.074C245.754 368.096 247.026 367.628 247.89 366.692C248.754 365.756 249.186 364.424 249.186 362.696C249.186 361.016 248.754 359.792 247.89 359.024C247.026 358.232 245.55 357.836 243.462 357.836C242.598 357.836 241.71 357.884 240.798 357.98L240.042 358.052V368.06ZM240.042 380.984C240.594 381.176 241.842 381.272 243.786 381.272C246.21 381.272 247.962 380.78 249.042 379.796C250.146 378.788 250.698 377.348 250.698 375.476C250.698 373.628 250.218 372.284 249.258 371.444C248.322 370.604 246.798 370.184 244.686 370.184C242.238 370.184 240.69 370.208 240.042 370.256V380.984ZM274.227 383.324C273.555 383.324 273.051 383.192 272.715 382.928C272.403 382.664 272.247 382.232 272.247 381.632V380.408C271.455 381.2 270.459 381.896 269.259 382.496C268.083 383.096 266.895 383.396 265.695 383.396C263.463 383.396 261.879 382.796 260.943 381.596C260.007 380.396 259.539 378.416 259.539 375.656V365.216L257.523 364.64V363.056L262.563 362.588H262.599L263.283 363.02V375.368C263.283 376.76 263.379 377.852 263.571 378.644C263.787 379.412 264.147 379.988 264.651 380.372C265.179 380.732 265.935 380.912 266.919 380.912C267.879 380.912 268.779 380.708 269.619 380.3C270.459 379.892 271.191 379.412 271.815 378.86V365.216L269.223 364.64V363.056L274.695 362.588H274.731L275.559 363.02V381.164H277.719L277.683 382.784C277.011 382.952 276.423 383.084 275.919 383.18C275.439 383.276 274.875 383.324 274.227 383.324ZM284.841 359.42C284.073 359.42 283.497 359.204 283.113 358.772C282.729 358.34 282.537 357.788 282.537 357.116C282.537 356.348 282.765 355.712 283.221 355.208C283.701 354.704 284.349 354.452 285.165 354.452C285.981 354.452 286.581 354.668 286.965 355.1C287.349 355.532 287.541 356.084 287.541 356.756C287.541 357.572 287.301 358.22 286.821 358.7C286.365 359.18 285.717 359.42 284.877 359.42H284.841ZM283.401 365.792L280.665 365.144V363.236L286.245 362.552H286.317L287.145 363.2V380.948L290.025 381.236V383H280.485V381.236L283.401 380.912V365.792ZM295.209 356.144L292.293 355.748V354.2L298.089 353.516H298.161L298.953 354.056V380.948L302.013 381.236V383H292.293V381.236L295.209 380.912V356.144ZM312.345 383.396C310.905 383.396 309.585 383.036 308.385 382.316C307.185 381.596 306.225 380.492 305.505 379.004C304.809 377.516 304.461 375.68 304.461 373.496C304.461 371.456 304.881 369.596 305.721 367.916C306.561 366.236 307.761 364.916 309.321 363.956C310.905 362.972 312.765 362.48 314.901 362.48C316.125 362.48 317.241 362.612 318.249 362.876V356.144L314.577 355.712V354.164L321.057 353.516H321.165L321.957 354.092V381.164H324.045V382.82C323.277 382.988 322.605 383.12 322.029 383.216C321.477 383.312 320.889 383.36 320.265 383.36C319.641 383.36 319.197 383.252 318.933 383.036C318.669 382.82 318.537 382.364 318.537 381.668V380.516C317.865 381.332 316.977 382.016 315.873 382.568C314.793 383.12 313.617 383.396 312.345 383.396ZM313.785 380.84C314.721 380.84 315.597 380.636 316.413 380.228C317.229 379.796 317.841 379.304 318.249 378.752V365.576C318.057 365.288 317.601 365.036 316.881 364.82C316.185 364.58 315.441 364.46 314.649 364.46C312.777 364.46 311.277 365.18 310.149 366.62C309.045 368.036 308.493 370.232 308.493 373.208C308.493 375.8 308.985 377.72 309.969 378.968C310.953 380.216 312.225 380.84 313.785 380.84ZM338.496 358.484L335.544 358.052V356.252H340.404C341.22 356.252 342.252 356.204 343.5 356.108C344.652 356.012 345.504 355.964 346.056 355.964C349.368 355.964 351.732 356.48 353.148 357.512C354.588 358.544 355.308 360.056 355.308 362.048C355.308 363.752 354.816 365.216 353.832 366.44C352.848 367.664 351.504 368.432 349.8 368.744C352.104 368.696 353.916 369.236 355.236 370.364C356.556 371.492 357.216 373.028 357.216 374.972C357.216 377.396 356.352 379.376 354.624 380.912C352.92 382.448 350.088 383.216 346.128 383.216C345.264 383.216 344.436 383.18 343.644 383.108C341.772 383.036 340.656 383 340.296 383H335.508V381.236L338.496 380.876V358.484ZM342.312 368.06C342.648 368.084 343.332 368.096 344.364 368.096H346.344C348.024 368.096 349.296 367.628 350.16 366.692C351.024 365.756 351.456 364.424 351.456 362.696C351.456 361.016 351.024 359.792 350.16 359.024C349.296 358.232 347.82 357.836 345.732 357.836C344.868 357.836 343.98 357.884 343.068 357.98L342.312 358.052V368.06ZM342.312 380.984C342.864 381.176 344.112 381.272 346.056 381.272C348.48 381.272 350.232 380.78 351.312 379.796C352.416 378.788 352.968 377.348 352.968 375.476C352.968 373.628 352.488 372.284 351.528 371.444C350.592 370.604 349.068 370.184 346.956 370.184C344.508 370.184 342.96 370.208 342.312 370.256V380.984ZM368.972 383.396C366.068 383.396 363.848 382.448 362.312 380.552C360.8 378.656 360.044 376.124 360.044 372.956C360.044 370.868 360.44 369.032 361.232 367.448C362.024 365.864 363.128 364.64 364.544 363.776C365.984 362.912 367.616 362.48 369.44 362.48C371.672 362.48 373.4 363.104 374.624 364.352C375.872 365.576 376.532 367.34 376.604 369.644C376.604 371.108 376.52 372.224 376.352 372.992H363.968C364.016 375.368 364.568 377.288 365.624 378.752C366.68 380.192 368.18 380.912 370.124 380.912C371.084 380.912 372.08 380.744 373.112 380.408C374.168 380.048 374.984 379.628 375.56 379.148L376.244 380.732C375.548 381.452 374.516 382.076 373.148 382.604C371.78 383.132 370.388 383.396 368.972 383.396ZM372.644 371.084C372.716 370.58 372.752 370.064 372.752 369.536C372.728 367.976 372.392 366.752 371.744 365.864C371.12 364.952 370.124 364.496 368.756 364.496C367.364 364.496 366.248 365 365.408 366.008C364.592 367.016 364.124 368.708 364.004 371.084H372.644ZM385.854 383.36C384.486 383.36 383.466 383.048 382.794 382.424C382.122 381.8 381.786 380.732 381.786 379.22V365.396H379.194V363.776C379.314 363.752 379.65 363.668 380.202 363.524C380.754 363.38 381.126 363.248 381.318 363.128C381.702 362.912 382.002 362.48 382.218 361.832C382.41 361.376 382.638 360.644 382.902 359.636C383.166 358.628 383.322 358.028 383.37 357.836H385.494L385.566 363.02H391.578V365.396H385.566V376.448C385.566 377.816 385.602 378.776 385.674 379.328C385.77 379.88 385.95 380.24 386.214 380.408C386.502 380.576 386.982 380.66 387.654 380.66C388.302 380.66 389.01 380.576 389.778 380.408C390.57 380.24 391.182 380.06 391.614 379.868L392.154 381.488C391.578 381.92 390.642 382.34 389.346 382.748C388.074 383.156 386.91 383.36 385.854 383.36ZM400.514 383.36C399.146 383.36 398.126 383.048 397.454 382.424C396.782 381.8 396.446 380.732 396.446 379.22V365.396H393.854V363.776C393.974 363.752 394.31 363.668 394.862 363.524C395.414 363.38 395.786 363.248 395.978 363.128C396.362 362.912 396.662 362.48 396.878 361.832C397.07 361.376 397.298 360.644 397.562 359.636C397.826 358.628 397.982 358.028 398.03 357.836H400.154L400.226 363.02H406.238V365.396H400.226V376.448C400.226 377.816 400.262 378.776 400.334 379.328C400.43 379.88 400.61 380.24 400.874 380.408C401.162 380.576 401.642 380.66 402.314 380.66C402.962 380.66 403.67 380.576 404.438 380.408C405.23 380.24 405.842 380.06 406.274 379.868L406.814 381.488C406.238 381.92 405.302 382.34 404.006 382.748C402.734 383.156 401.57 383.36 400.514 383.36ZM417.874 383.396C414.97 383.396 412.75 382.448 411.214 380.552C409.702 378.656 408.946 376.124 408.946 372.956C408.946 370.868 409.342 369.032 410.134 367.448C410.926 365.864 412.03 364.64 413.446 363.776C414.886 362.912 416.518 362.48 418.342 362.48C420.574 362.48 422.302 363.104 423.526 364.352C424.774 365.576 425.434 367.34 425.506 369.644C425.506 371.108 425.422 372.224 425.254 372.992H412.87C412.918 375.368 413.47 377.288 414.526 378.752C415.582 380.192 417.082 380.912 419.026 380.912C419.986 380.912 420.982 380.744 422.014 380.408C423.07 380.048 423.886 379.628 424.462 379.148L425.146 380.732C424.45 381.452 423.418 382.076 422.05 382.604C420.682 383.132 419.29 383.396 417.874 383.396ZM421.546 371.084C421.618 370.58 421.654 370.064 421.654 369.536C421.63 367.976 421.294 366.752 420.646 365.864C420.022 364.952 419.026 364.496 417.658 364.496C416.266 364.496 415.15 365 414.31 366.008C413.494 367.016 413.026 368.708 412.906 371.084H421.546ZM428.672 381.236L431.372 381.02V365.792L428.78 365.144V363.2L433.748 362.552H433.82L434.612 363.2V363.848L434.504 366.656H434.612C434.852 366.248 435.284 365.72 435.908 365.072C436.532 364.424 437.336 363.836 438.32 363.308C439.304 362.756 440.372 362.48 441.524 362.48C442.004 362.48 442.4 362.54 442.712 362.66V366.692C442.544 366.572 442.268 366.464 441.884 366.368C441.524 366.248 441.116 366.188 440.66 366.188C438.668 366.188 436.82 366.8 435.116 368.024V380.984L439.688 381.272V383H428.672V381.236ZM456.728 358.484L453.884 358.052V356.252H463.676V358.052L460.58 358.484V368.168H473.252V358.484L470.336 358.052V356.252H479.984V358.052L477.14 358.484V380.876L479.984 381.236V383H470.3V381.236L473.252 380.876V370.4H460.58V380.876L463.712 381.236V383H453.812V381.236L456.728 380.876V358.484ZM483.444 377.6C483.444 375.344 484.572 373.688 486.828 372.632C489.084 371.552 491.94 370.976 495.396 370.904V369.896C495.396 368.768 495.276 367.88 495.036 367.232C494.796 366.584 494.376 366.116 493.776 365.828C493.2 365.516 492.372 365.36 491.292 365.36C490.068 365.36 488.964 365.54 487.98 365.9C487.02 366.236 486.06 366.656 485.1 367.16L484.2 365.288C484.512 365.024 485.088 364.676 485.928 364.244C486.768 363.812 487.74 363.428 488.844 363.092C489.948 362.756 491.052 362.588 492.156 362.588C493.86 362.588 495.204 362.828 496.188 363.308C497.196 363.764 497.916 364.508 498.348 365.54C498.78 366.572 498.996 367.952 498.996 369.68V381.236H501.12V382.82C500.64 382.94 500.028 383.06 499.284 383.18C498.564 383.3 497.928 383.36 497.376 383.36C496.704 383.36 496.248 383.252 496.008 383.036C495.768 382.844 495.648 382.4 495.648 381.704V380.516C494.928 381.236 494.04 381.896 492.984 382.496C491.952 383.096 490.776 383.396 489.456 383.396C487.728 383.396 486.288 382.904 485.136 381.92C484.008 380.912 483.444 379.472 483.444 377.6ZM491.004 380.948C491.628 380.948 492.348 380.756 493.164 380.372C493.98 379.988 494.724 379.532 495.396 379.004V372.812C492.78 372.812 490.8 373.22 489.456 374.036C488.136 374.828 487.476 375.872 487.476 377.168C487.476 378.464 487.788 379.424 488.412 380.048C489.06 380.648 489.924 380.948 491.004 380.948ZM501.932 354.2L507.692 353.516H507.764L508.592 354.056V364.892C509.312 364.196 510.164 363.62 511.148 363.164C512.156 362.708 513.272 362.48 514.496 362.48C515.936 362.48 517.244 362.828 518.42 363.524C519.62 364.22 520.568 365.3 521.264 366.764C521.984 368.228 522.344 370.076 522.344 372.308C522.344 374.372 521.912 376.244 521.048 377.924C520.208 379.604 518.996 380.936 517.412 381.92C515.828 382.904 513.992 383.396 511.904 383.396C510.248 383.396 508.736 383.24 507.368 382.928C506 382.592 505.172 382.292 504.884 382.028V356.108L501.932 355.712V354.2ZM513.02 365.036C512.108 365.036 511.256 365.252 510.464 365.684C509.696 366.092 509.072 366.56 508.592 367.088V380.336C508.736 380.672 509.144 380.948 509.816 381.164C510.512 381.356 511.292 381.452 512.156 381.452C514.004 381.452 515.492 380.708 516.62 379.22C517.748 377.732 518.312 375.56 518.312 372.704C518.312 370.136 517.82 368.216 516.836 366.944C515.852 365.672 514.58 365.036 513.02 365.036ZM529.739 359.42C528.971 359.42 528.395 359.204 528.011 358.772C527.627 358.34 527.435 357.788 527.435 357.116C527.435 356.348 527.663 355.712 528.119 355.208C528.599 354.704 529.247 354.452 530.063 354.452C530.879 354.452 531.479 354.668 531.863 355.1C532.247 355.532 532.439 356.084 532.439 356.756C532.439 357.572 532.199 358.22 531.719 358.7C531.263 359.18 530.615 359.42 529.775 359.42H529.739ZM528.299 365.792L525.563 365.144V363.236L531.143 362.552H531.215L532.043 363.2V380.948L534.923 381.236V383H525.383V381.236L528.299 380.912V365.792ZM543.635 383.36C542.267 383.36 541.247 383.048 540.575 382.424C539.903 381.8 539.567 380.732 539.567 379.22V365.396H536.975V363.776C537.095 363.752 537.431 363.668 537.983 363.524C538.535 363.38 538.907 363.248 539.099 363.128C539.483 362.912 539.783 362.48 539.999 361.832C540.191 361.376 540.419 360.644 540.683 359.636C540.947 358.628 541.103 358.028 541.151 357.836H543.275L543.347 363.02H549.359V365.396H543.347V376.448C543.347 377.816 543.383 378.776 543.455 379.328C543.551 379.88 543.731 380.24 543.995 380.408C544.283 380.576 544.763 380.66 545.435 380.66C546.083 380.66 546.791 380.576 547.559 380.408C548.351 380.24 548.963 380.06 549.395 379.868L549.935 381.488C549.359 381.92 548.423 382.34 547.127 382.748C545.855 383.156 544.691 383.36 543.635 383.36ZM555.488 380.12C555.728 380.48 556.232 380.804 557 381.092C557.792 381.38 558.62 381.524 559.484 381.524C560.852 381.524 561.86 381.26 562.508 380.732C563.156 380.204 563.48 379.472 563.48 378.536C563.48 377.888 563.276 377.324 562.868 376.844C562.46 376.364 561.884 375.944 561.14 375.584C560.42 375.2 559.376 374.744 558.008 374.216C556.16 373.52 554.804 372.692 553.94 371.732C553.1 370.748 552.68 369.464 552.68 367.88C552.68 366.824 552.992 365.9 553.616 365.108C554.264 364.316 555.14 363.704 556.244 363.272C557.372 362.816 558.62 362.588 559.988 362.588C561.092 362.588 562.052 362.672 562.868 362.84C563.708 363.008 564.38 363.176 564.884 363.344C565.388 363.512 565.724 363.62 565.892 363.668V368.132H563.696L562.976 365.468C562.832 365.18 562.448 364.94 561.824 364.748C561.2 364.532 560.504 364.424 559.736 364.424C558.656 364.424 557.78 364.664 557.108 365.144C556.46 365.624 556.136 366.272 556.136 367.088C556.136 367.808 556.304 368.408 556.64 368.888C557 369.344 557.444 369.716 557.972 370.004C558.5 370.292 559.22 370.628 560.132 371.012L560.852 371.3C562.196 371.828 563.288 372.332 564.128 372.812C564.968 373.292 565.664 373.928 566.216 374.72C566.792 375.488 567.08 376.436 567.08 377.564C567.08 379.34 566.384 380.756 564.992 381.812C563.624 382.868 561.74 383.396 559.34 383.396C558.164 383.396 556.928 383.24 555.632 382.928C554.36 382.592 553.316 382.256 552.5 381.92V377.312H554.84L555.488 380.12ZM576.986 363.02H585.374V364.712L582.638 365.144L585.626 375.728L586.67 380.3L587.714 375.692L591.17 363.02H594.698L598.262 375.692L599.306 380.336L600.458 375.728L603.374 365.18L600.638 364.712V363.02H607.946V364.712L606.038 365.18L600.458 383.288H597.074L593.258 370.58L592.322 366.116L591.566 370.58L587.93 383.288H584.582L578.822 365.144L576.986 364.712V363.02ZM613.306 359.42C612.538 359.42 611.962 359.204 611.578 358.772C611.194 358.34 611.002 357.788 611.002 357.116C611.002 356.348 611.23 355.712 611.686 355.208C612.166 354.704 612.814 354.452 613.63 354.452C614.446 354.452 615.046 354.668 615.43 355.1C615.814 355.532 616.006 356.084 616.006 356.756C616.006 357.572 615.766 358.22 615.286 358.7C614.83 359.18 614.182 359.42 613.342 359.42H613.306ZM611.866 365.792L609.13 365.144V363.236L614.71 362.552H614.782L615.61 363.2V380.948L618.49 381.236V383H608.95V381.236L611.866 380.912V365.792ZM627.202 383.36C625.834 383.36 624.814 383.048 624.142 382.424C623.47 381.8 623.134 380.732 623.134 379.22V365.396H620.542V363.776C620.662 363.752 620.998 363.668 621.55 363.524C622.102 363.38 622.474 363.248 622.666 363.128C623.05 362.912 623.35 362.48 623.566 361.832C623.758 361.376 623.986 360.644 624.25 359.636C624.514 358.628 624.67 358.028 624.718 357.836H626.842L626.914 363.02H632.926V365.396H626.914V376.448C626.914 377.816 626.95 378.776 627.022 379.328C627.118 379.88 627.298 380.24 627.562 380.408C627.85 380.576 628.33 380.66 629.002 380.66C629.65 380.66 630.358 380.576 631.126 380.408C631.918 380.24 632.53 380.06 632.962 379.868L633.502 381.488C632.926 381.92 631.99 382.34 630.694 382.748C629.422 383.156 628.258 383.36 627.202 383.36ZM637.65 356.144L634.626 355.748V354.2L640.494 353.516H640.566L641.358 354.056V362.408L641.214 365.468C641.982 364.772 643.038 364.112 644.382 363.488C645.726 362.864 647.082 362.552 648.45 362.552C649.962 362.552 651.138 362.84 651.978 363.416C652.818 363.992 653.406 364.88 653.742 366.08C654.078 367.256 654.246 368.852 654.246 370.868V380.912L656.766 381.236V383H648.162V381.236L650.502 380.912V370.832C650.502 369.416 650.406 368.312 650.214 367.52C650.022 366.704 649.662 366.104 649.134 365.72C648.606 365.312 647.814 365.108 646.758 365.108C645.894 365.108 644.97 365.324 643.986 365.756C643.002 366.188 642.138 366.692 641.394 367.268V380.912L643.878 381.236V383H635.49V381.236L637.65 380.948V356.144ZM676.799 383.396C675.551 383.396 674.435 383.288 673.451 383.072C672.467 382.856 671.387 382.568 670.211 382.208C669.491 381.944 668.951 381.8 668.591 381.776L668.879 375.26H671.183L671.795 379.94C672.203 380.324 672.863 380.672 673.775 380.984C674.711 381.272 675.731 381.416 676.835 381.416C678.659 381.416 680.039 381.008 680.975 380.192C681.935 379.376 682.415 378.248 682.415 376.808C682.415 375.872 682.151 375.068 681.623 374.396C681.119 373.724 680.435 373.148 679.571 372.668C678.731 372.188 677.567 371.624 676.079 370.976C674.735 370.376 673.559 369.764 672.551 369.14C671.567 368.516 670.703 367.688 669.959 366.656C669.239 365.6 668.879 364.34 668.879 362.876C668.879 361.556 669.227 360.38 669.923 359.348C670.643 358.292 671.663 357.464 672.983 356.864C674.327 356.264 675.887 355.964 677.663 355.964C678.767 355.964 679.739 356.048 680.579 356.216C681.443 356.384 682.415 356.612 683.495 356.9C683.975 357.068 684.383 357.176 684.719 357.224L684.503 363.272H682.307L681.587 358.844C681.347 358.604 680.843 358.376 680.075 358.16C679.331 357.944 678.515 357.836 677.627 357.836C675.971 357.836 674.711 358.184 673.847 358.88C673.007 359.576 672.587 360.584 672.587 361.904C672.587 362.864 672.839 363.668 673.343 364.316C673.871 364.964 674.519 365.516 675.287 365.972C676.055 366.428 677.279 367.052 678.959 367.844C680.519 368.588 681.791 369.26 682.775 369.86C683.759 370.46 684.599 371.252 685.295 372.236C686.015 373.196 686.375 374.348 686.375 375.692C686.375 376.964 686.015 378.188 685.295 379.364C684.599 380.54 683.519 381.512 682.055 382.28C680.615 383.024 678.863 383.396 676.799 383.396ZM688.922 373.136C688.922 371.144 689.306 369.344 690.074 367.736C690.866 366.128 692.018 364.856 693.53 363.92C695.066 362.96 696.902 362.48 699.038 362.48C700.07 362.48 700.958 362.576 701.702 362.768C702.446 362.96 703.334 363.224 704.366 363.56L704.222 369.104H701.882L701.09 365.432C700.946 364.76 700.034 364.424 698.354 364.424C696.674 364.424 695.342 365.108 694.358 366.476C693.398 367.82 692.918 369.74 692.918 372.236C692.918 375.068 693.458 377.228 694.538 378.716C695.642 380.18 697.07 380.912 698.822 380.912C699.83 380.912 700.778 380.756 701.666 380.444C702.578 380.132 703.358 379.76 704.006 379.328L704.69 380.768C704.042 381.44 703.082 382.052 701.81 382.604C700.562 383.132 699.29 383.396 697.994 383.396C696.026 383.396 694.358 382.952 692.99 382.064C691.646 381.176 690.626 379.964 689.93 378.428C689.258 376.868 688.922 375.104 688.922 373.136ZM712.059 359.42C711.291 359.42 710.715 359.204 710.331 358.772C709.947 358.34 709.755 357.788 709.755 357.116C709.755 356.348 709.983 355.712 710.439 355.208C710.919 354.704 711.567 354.452 712.383 354.452C713.199 354.452 713.799 354.668 714.183 355.1C714.567 355.532 714.759 356.084 714.759 356.756C714.759 357.572 714.519 358.22 714.039 358.7C713.583 359.18 712.935 359.42 712.095 359.42H712.059ZM710.619 365.792L707.883 365.144V363.236L713.463 362.552H713.535L714.363 363.2V380.948L717.243 381.236V383H707.703V381.236L710.619 380.912V365.792ZM728.656 383.396C725.752 383.396 723.532 382.448 721.996 380.552C720.484 378.656 719.728 376.124 719.728 372.956C719.728 370.868 720.124 369.032 720.916 367.448C721.708 365.864 722.812 364.64 724.228 363.776C725.668 362.912 727.3 362.48 729.124 362.48C731.356 362.48 733.084 363.104 734.308 364.352C735.556 365.576 736.216 367.34 736.288 369.644C736.288 371.108 736.204 372.224 736.036 372.992H723.652C723.7 375.368 724.252 377.288 725.308 378.752C726.364 380.192 727.864 380.912 729.808 380.912C730.768 380.912 731.764 380.744 732.796 380.408C733.852 380.048 734.668 379.628 735.244 379.148L735.928 380.732C735.232 381.452 734.2 382.076 732.832 382.604C731.464 383.132 730.072 383.396 728.656 383.396ZM732.328 371.084C732.4 370.58 732.436 370.064 732.436 369.536C732.412 367.976 732.076 366.752 731.428 365.864C730.804 364.952 729.808 364.496 728.44 364.496C727.048 364.496 725.932 365 725.092 366.008C724.276 367.016 723.808 368.708 723.688 371.084H732.328ZM741.542 365.792L738.95 365.144V363.2L744.098 362.552H744.206L744.962 363.2V364.712L744.926 365.576C745.79 364.808 746.93 364.112 748.346 363.488C749.762 362.864 751.118 362.552 752.414 362.552C753.926 362.552 755.09 362.84 755.906 363.416C756.746 363.992 757.334 364.88 757.67 366.08C758.006 367.256 758.174 368.852 758.174 370.868V380.948L760.694 381.2V383H752.162V381.236L754.394 380.948V370.832C754.394 369.416 754.298 368.312 754.106 367.52C753.914 366.704 753.554 366.104 753.026 365.72C752.498 365.312 751.73 365.108 750.722 365.108C749.858 365.108 748.934 365.324 747.95 365.756C746.966 366.188 746.09 366.692 745.322 367.268V380.912L747.77 381.236V383H739.274V381.236L741.542 380.912V365.792ZM762.856 373.136C762.856 371.144 763.24 369.344 764.008 367.736C764.8 366.128 765.952 364.856 767.464 363.92C769 362.96 770.836 362.48 772.972 362.48C774.004 362.48 774.892 362.576 775.636 362.768C776.38 362.96 777.268 363.224 778.3 363.56L778.156 369.104H775.816L775.024 365.432C774.88 364.76 773.968 364.424 772.288 364.424C770.608 364.424 769.276 365.108 768.292 366.476C767.332 367.82 766.852 369.74 766.852 372.236C766.852 375.068 767.392 377.228 768.472 378.716C769.576 380.18 771.004 380.912 772.756 380.912C773.764 380.912 774.712 380.756 775.6 380.444C776.512 380.132 777.292 379.76 777.94 379.328L778.624 380.768C777.976 381.44 777.016 382.052 775.744 382.604C774.496 383.132 773.224 383.396 771.928 383.396C769.96 383.396 768.292 382.952 766.924 382.064C765.58 381.176 764.56 379.964 763.864 378.428C763.192 376.868 762.856 375.104 762.856 373.136ZM790.601 383.396C787.697 383.396 785.477 382.448 783.941 380.552C782.429 378.656 781.673 376.124 781.673 372.956C781.673 370.868 782.069 369.032 782.861 367.448C783.653 365.864 784.757 364.64 786.173 363.776C787.613 362.912 789.245 362.48 791.069 362.48C793.301 362.48 795.029 363.104 796.253 364.352C797.501 365.576 798.161 367.34 798.233 369.644C798.233 371.108 798.149 372.224 797.981 372.992H785.597C785.645 375.368 786.197 377.288 787.253 378.752C788.309 380.192 789.809 380.912 791.753 380.912C792.713 380.912 793.709 380.744 794.741 380.408C795.797 380.048 796.613 379.628 797.189 379.148L797.873 380.732C797.177 381.452 796.145 382.076 794.777 382.604C793.409 383.132 792.017 383.396 790.601 383.396ZM794.273 371.084C794.345 370.58 794.381 370.064 794.381 369.536C794.357 367.976 794.021 366.752 793.373 365.864C792.749 364.952 791.753 364.496 790.385 364.496C788.993 364.496 787.877 365 787.037 366.008C786.221 367.016 785.753 368.708 785.633 371.084H794.273ZM818.283 372.776H803.739V370.148H818.283V372.776ZM822.24 354.2L828.001 353.516H828.073L828.901 354.056V364.892C829.621 364.196 830.473 363.62 831.457 363.164C832.465 362.708 833.581 362.48 834.805 362.48C836.245 362.48 837.553 362.828 838.729 363.524C839.929 364.22 840.877 365.3 841.573 366.764C842.293 368.228 842.652 370.076 842.652 372.308C842.652 374.372 842.221 376.244 841.357 377.924C840.517 379.604 839.305 380.936 837.721 381.92C836.137 382.904 834.301 383.396 832.213 383.396C830.557 383.396 829.045 383.24 827.677 382.928C826.309 382.592 825.481 382.292 825.193 382.028V356.108L822.24 355.712V354.2ZM833.329 365.036C832.417 365.036 831.565 365.252 830.773 365.684C830.005 366.092 829.381 366.56 828.901 367.088V380.336C829.045 380.672 829.453 380.948 830.125 381.164C830.821 381.356 831.601 381.452 832.465 381.452C834.313 381.452 835.801 380.708 836.929 379.22C838.057 377.732 838.621 375.56 838.621 372.704C838.621 370.136 838.129 368.216 837.145 366.944C836.161 365.672 834.889 365.036 833.329 365.036ZM845.8 377.6C845.8 375.344 846.928 373.688 849.184 372.632C851.44 371.552 854.296 370.976 857.752 370.904V369.896C857.752 368.768 857.632 367.88 857.392 367.232C857.152 366.584 856.732 366.116 856.132 365.828C855.556 365.516 854.728 365.36 853.648 365.36C852.424 365.36 851.32 365.54 850.336 365.9C849.376 366.236 848.416 366.656 847.456 367.16L846.556 365.288C846.868 365.024 847.444 364.676 848.284 364.244C849.124 363.812 850.096 363.428 851.2 363.092C852.304 362.756 853.408 362.588 854.512 362.588C856.216 362.588 857.56 362.828 858.544 363.308C859.552 363.764 860.272 364.508 860.704 365.54C861.136 366.572 861.352 367.952 861.352 369.68V381.236H863.476V382.82C862.996 382.94 862.384 383.06 861.64 383.18C860.92 383.3 860.284 383.36 859.732 383.36C859.06 383.36 858.604 383.252 858.364 383.036C858.124 382.844 858.004 382.4 858.004 381.704V380.516C857.284 381.236 856.396 381.896 855.34 382.496C854.308 383.096 853.132 383.396 851.812 383.396C850.084 383.396 848.644 382.904 847.492 381.92C846.364 380.912 845.8 379.472 845.8 377.6ZM853.36 380.948C853.984 380.948 854.704 380.756 855.52 380.372C856.336 379.988 857.08 379.532 857.752 379.004V372.812C855.136 372.812 853.156 373.22 851.812 374.036C850.492 374.828 849.832 375.872 849.832 377.168C849.832 378.464 850.144 379.424 850.768 380.048C851.416 380.648 852.28 380.948 853.36 380.948ZM865.547 373.136C865.547 371.144 865.931 369.344 866.699 367.736C867.491 366.128 868.643 364.856 870.155 363.92C871.691 362.96 873.527 362.48 875.663 362.48C876.695 362.48 877.583 362.576 878.327 362.768C879.071 362.96 879.959 363.224 880.991 363.56L880.847 369.104H878.507L877.715 365.432C877.571 364.76 876.659 364.424 874.979 364.424C873.299 364.424 871.967 365.108 870.983 366.476C870.023 367.82 869.543 369.74 869.543 372.236C869.543 375.068 870.083 377.228 871.163 378.716C872.267 380.18 873.695 380.912 875.447 380.912C876.455 380.912 877.403 380.756 878.291 380.444C879.203 380.132 879.983 379.76 880.631 379.328L881.315 380.768C880.667 381.44 879.707 382.052 878.435 382.604C877.187 383.132 875.915 383.396 874.619 383.396C872.651 383.396 870.983 382.952 869.615 382.064C868.271 381.176 867.251 379.964 866.555 378.428C865.883 376.868 865.547 375.104 865.547 373.136ZM886.344 356.144L883.536 355.748V354.2L889.26 353.516H889.296L890.088 354.056V371.66L890.016 373.784L898.332 365.18L895.632 364.676V363.02H904.344V364.676L901.5 365.18L896.208 370.328L903.048 380.948L905.28 381.236V383H896.532V381.236L898.8 380.912L893.724 372.56L890.016 376.232L890.088 378.068V380.912L892.644 381.236V383H884.076V381.236L886.344 380.912V356.144ZM914.878 383.396C911.974 383.396 909.754 382.448 908.218 380.552C906.706 378.656 905.95 376.124 905.95 372.956C905.95 370.868 906.346 369.032 907.138 367.448C907.93 365.864 909.034 364.64 910.45 363.776C911.89 362.912 913.522 362.48 915.346 362.48C917.578 362.48 919.306 363.104 920.53 364.352C921.778 365.576 922.438 367.34 922.51 369.644C922.51 371.108 922.426 372.224 922.258 372.992H909.874C909.922 375.368 910.474 377.288 911.53 378.752C912.586 380.192 914.086 380.912 916.03 380.912C916.99 380.912 917.986 380.744 919.018 380.408C920.074 380.048 920.89 379.628 921.466 379.148L922.15 380.732C921.454 381.452 920.422 382.076 919.054 382.604C917.686 383.132 916.294 383.396 914.878 383.396ZM918.55 371.084C918.622 370.58 918.658 370.064 918.658 369.536C918.634 367.976 918.298 366.752 917.65 365.864C917.026 364.952 916.03 364.496 914.662 364.496C913.27 364.496 912.154 365 911.314 366.008C910.498 367.016 910.03 368.708 909.91 371.084H918.55ZM933.38 383.396C931.94 383.396 930.62 383.036 929.42 382.316C928.22 381.596 927.26 380.492 926.54 379.004C925.844 377.516 925.496 375.68 925.496 373.496C925.496 371.456 925.916 369.596 926.756 367.916C927.596 366.236 928.796 364.916 930.356 363.956C931.94 362.972 933.8 362.48 935.936 362.48C937.16 362.48 938.276 362.612 939.284 362.876V356.144L935.612 355.712V354.164L942.092 353.516H942.2L942.992 354.092V381.164H945.08V382.82C944.312 382.988 943.64 383.12 943.064 383.216C942.512 383.312 941.924 383.36 941.3 383.36C940.676 383.36 940.232 383.252 939.968 383.036C939.704 382.82 939.572 382.364 939.572 381.668V380.516C938.9 381.332 938.012 382.016 936.908 382.568C935.828 383.12 934.652 383.396 933.38 383.396ZM934.82 380.84C935.756 380.84 936.632 380.636 937.448 380.228C938.264 379.796 938.876 379.304 939.284 378.752V365.576C939.092 365.288 938.636 365.036 937.916 364.82C937.22 364.58 936.476 364.46 935.684 364.46C933.812 364.46 932.312 365.18 931.184 366.62C930.08 368.036 929.528 370.232 929.528 373.208C929.528 375.8 930.02 377.72 931.004 378.968C931.988 380.216 933.26 380.84 934.82 380.84ZM959.603 358.484L956.795 358.052V356.252H961.583C962.447 356.252 963.299 356.216 964.139 356.144C965.435 356.048 966.659 356 967.811 356C971.291 356.024 973.751 356.672 975.191 357.944C976.631 359.216 977.351 361.136 977.351 363.704C977.351 365.624 976.907 367.292 976.019 368.708C975.131 370.124 973.895 371.204 972.311 371.948C970.751 372.692 968.951 373.064 966.911 373.064C966.215 373.064 965.507 373.052 964.787 373.028C964.067 372.98 963.623 372.944 963.455 372.92V380.84L968.387 381.236V383H956.615V381.236L959.603 380.876V358.484ZM963.455 370.94C964.127 371.06 965.279 371.12 966.911 371.12C968.807 371.12 970.343 370.544 971.519 369.392C972.719 368.24 973.319 366.356 973.319 363.74C973.319 361.676 972.803 360.2 971.771 359.312C970.739 358.4 969.131 357.944 966.947 357.944C966.179 357.944 965.363 357.992 964.499 358.088C963.971 358.136 963.623 358.16 963.455 358.16V370.94ZM979.958 381.236L982.658 381.02V365.792L980.066 365.144V363.2L985.034 362.552H985.106L985.898 363.2V363.848L985.79 366.656H985.898C986.138 366.248 986.57 365.72 987.194 365.072C987.818 364.424 988.622 363.836 989.606 363.308C990.59 362.756 991.658 362.48 992.81 362.48C993.29 362.48 993.686 362.54 993.998 362.66V366.692C993.83 366.572 993.554 366.464 993.17 366.368C992.81 366.248 992.402 366.188 991.946 366.188C989.954 366.188 988.106 366.8 986.402 368.024V380.984L990.974 381.272V383H979.958V381.236ZM996.374 377.6C996.374 375.344 997.502 373.688 999.758 372.632C1002.01 371.552 1004.87 370.976 1008.33 370.904V369.896C1008.33 368.768 1008.21 367.88 1007.97 367.232C1007.73 366.584 1007.31 366.116 1006.71 365.828C1006.13 365.516 1005.3 365.36 1004.22 365.36C1003 365.36 1001.89 365.54 1000.91 365.9C999.95 366.236 998.99 366.656 998.03 367.16L997.13 365.288C997.442 365.024 998.018 364.676 998.858 364.244C999.698 363.812 1000.67 363.428 1001.77 363.092C1002.88 362.756 1003.98 362.588 1005.09 362.588C1006.79 362.588 1008.13 362.828 1009.12 363.308C1010.13 363.764 1010.85 364.508 1011.28 365.54C1011.71 366.572 1011.93 367.952 1011.93 369.68V381.236H1014.05V382.82C1013.57 382.94 1012.96 383.06 1012.21 383.18C1011.49 383.3 1010.86 383.36 1010.31 383.36C1009.63 383.36 1009.18 383.252 1008.94 383.036C1008.7 382.844 1008.58 382.4 1008.58 381.704V380.516C1007.86 381.236 1006.97 381.896 1005.91 382.496C1004.88 383.096 1003.71 383.396 1002.39 383.396C1000.66 383.396 999.218 382.904 998.066 381.92C996.938 380.912 996.374 379.472 996.374 377.6ZM1003.93 380.948C1004.56 380.948 1005.28 380.756 1006.09 380.372C1006.91 379.988 1007.65 379.532 1008.33 379.004V372.812C1005.71 372.812 1003.73 373.22 1002.39 374.036C1001.07 374.828 1000.41 375.872 1000.41 377.168C1000.41 378.464 1000.72 379.424 1001.34 380.048C1001.99 380.648 1002.85 380.948 1003.93 380.948ZM1016.12 373.136C1016.12 371.144 1016.51 369.344 1017.27 367.736C1018.07 366.128 1019.22 364.856 1020.73 363.92C1022.27 362.96 1024.1 362.48 1026.24 362.48C1027.27 362.48 1028.16 362.576 1028.9 362.768C1029.65 362.96 1030.53 363.224 1031.57 363.56L1031.42 369.104H1029.08L1028.29 365.432C1028.15 364.76 1027.23 364.424 1025.55 364.424C1023.87 364.424 1022.54 365.108 1021.56 366.476C1020.6 367.82 1020.12 369.74 1020.12 372.236C1020.12 375.068 1020.66 377.228 1021.74 378.716C1022.84 380.18 1024.27 380.912 1026.02 380.912C1027.03 380.912 1027.98 380.756 1028.87 380.444C1029.78 380.132 1030.56 379.76 1031.21 379.328L1031.89 380.768C1031.24 381.44 1030.28 382.052 1029.01 382.604C1027.76 383.132 1026.49 383.396 1025.19 383.396C1023.23 383.396 1021.56 382.952 1020.19 382.064C1018.85 381.176 1017.83 379.964 1017.13 378.428C1016.46 376.868 1016.12 375.104 1016.12 373.136ZM1041.17 383.36C1039.8 383.36 1038.78 383.048 1038.11 382.424C1037.43 381.8 1037.1 380.732 1037.1 379.22V365.396H1034.51V363.776C1034.63 363.752 1034.96 363.668 1035.51 363.524C1036.07 363.38 1036.44 363.248 1036.63 363.128C1037.01 362.912 1037.31 362.48 1037.53 361.832C1037.72 361.376 1037.95 360.644 1038.21 359.636C1038.48 358.628 1038.63 358.028 1038.68 357.836H1040.81L1040.88 363.02H1046.89V365.396H1040.88V376.448C1040.88 377.816 1040.91 378.776 1040.99 379.328C1041.08 379.88 1041.26 380.24 1041.53 380.408C1041.81 380.576 1042.29 380.66 1042.97 380.66C1043.61 380.66 1044.32 380.576 1045.09 380.408C1045.88 380.24 1046.49 380.06 1046.93 379.868L1047.47 381.488C1046.89 381.92 1045.95 382.34 1044.66 382.748C1043.39 383.156 1042.22 383.36 1041.17 383.36ZM1053.92 359.42C1053.15 359.42 1052.57 359.204 1052.19 358.772C1051.81 358.34 1051.61 357.788 1051.61 357.116C1051.61 356.348 1051.84 355.712 1052.3 355.208C1052.78 354.704 1053.43 354.452 1054.24 354.452C1055.06 354.452 1055.66 354.668 1056.04 355.1C1056.43 355.532 1056.62 356.084 1056.62 356.756C1056.62 357.572 1056.38 358.22 1055.9 358.7C1055.44 359.18 1054.79 359.42 1053.95 359.42H1053.92ZM1052.48 365.792L1049.74 365.144V363.236L1055.32 362.552H1055.39L1056.22 363.2V380.948L1059.1 381.236V383H1049.56V381.236L1052.48 380.912V365.792ZM1061.23 373.136C1061.23 371.144 1061.61 369.344 1062.38 367.736C1063.17 366.128 1064.32 364.856 1065.84 363.92C1067.37 362.96 1069.21 362.48 1071.34 362.48C1072.38 362.48 1073.26 362.576 1074.01 362.768C1074.75 362.96 1075.64 363.224 1076.67 363.56L1076.53 369.104H1074.19L1073.4 365.432C1073.25 364.76 1072.34 364.424 1070.66 364.424C1068.98 364.424 1067.65 365.108 1066.66 366.476C1065.7 367.82 1065.22 369.74 1065.22 372.236C1065.22 375.068 1065.76 377.228 1066.84 378.716C1067.95 380.18 1069.38 380.912 1071.13 380.912C1072.14 380.912 1073.08 380.756 1073.97 380.444C1074.88 380.132 1075.66 379.76 1076.31 379.328L1077 380.768C1076.35 381.44 1075.39 382.052 1074.12 382.604C1072.87 383.132 1071.6 383.396 1070.3 383.396C1068.33 383.396 1066.66 382.952 1065.3 382.064C1063.95 381.176 1062.93 379.964 1062.24 378.428C1061.56 376.868 1061.23 375.104 1061.23 373.136ZM1080.12 377.6C1080.12 375.344 1081.24 373.688 1083.5 372.632C1085.76 371.552 1088.61 370.976 1092.07 370.904V369.896C1092.07 368.768 1091.95 367.88 1091.71 367.232C1091.47 366.584 1091.05 366.116 1090.45 365.828C1089.87 365.516 1089.04 365.36 1087.96 365.36C1086.74 365.36 1085.64 365.54 1084.65 365.9C1083.69 366.236 1082.73 366.656 1081.77 367.16L1080.87 365.288C1081.18 365.024 1081.76 364.676 1082.6 364.244C1083.44 363.812 1084.41 363.428 1085.52 363.092C1086.62 362.756 1087.72 362.588 1088.83 362.588C1090.53 362.588 1091.88 362.828 1092.86 363.308C1093.87 363.764 1094.59 364.508 1095.02 365.54C1095.45 366.572 1095.67 367.952 1095.67 369.68V381.236H1097.79V382.82C1097.31 382.94 1096.7 383.06 1095.96 383.18C1095.24 383.3 1094.6 383.36 1094.05 383.36C1093.38 383.36 1092.92 383.252 1092.68 383.036C1092.44 382.844 1092.32 382.4 1092.32 381.704V380.516C1091.6 381.236 1090.71 381.896 1089.66 382.496C1088.62 383.096 1087.45 383.396 1086.13 383.396C1084.4 383.396 1082.96 382.904 1081.81 381.92C1080.68 380.912 1080.12 379.472 1080.12 377.6ZM1087.68 380.948C1088.3 380.948 1089.02 380.756 1089.84 380.372C1090.65 379.988 1091.4 379.532 1092.07 379.004V372.812C1089.45 372.812 1087.47 373.22 1086.13 374.036C1084.81 374.828 1084.15 375.872 1084.15 377.168C1084.15 378.464 1084.46 379.424 1085.08 380.048C1085.73 380.648 1086.6 380.948 1087.68 380.948ZM1102.92 356.144L1100.01 355.748V354.2L1105.8 353.516H1105.88L1106.67 354.056V380.948L1109.73 381.236V383H1100.01V381.236L1102.92 380.912V356.144ZM1123.92 358.484L1121.08 358.052V356.252H1130.87V358.052L1127.78 358.484V368.168H1140.45V358.484L1137.53 358.052V356.252H1147.18V358.052L1144.34 358.484V380.876L1147.18 381.236V383H1137.5V381.236L1140.45 380.876V370.4H1127.78V380.876L1130.91 381.236V383H1121.01V381.236L1123.92 380.876V358.484ZM1150.64 377.6C1150.64 375.344 1151.77 373.688 1154.02 372.632C1156.28 371.552 1159.14 370.976 1162.59 370.904V369.896C1162.59 368.768 1162.47 367.88 1162.23 367.232C1161.99 366.584 1161.57 366.116 1160.97 365.828C1160.4 365.516 1159.57 365.36 1158.49 365.36C1157.26 365.36 1156.16 365.54 1155.18 365.9C1154.22 366.236 1153.26 366.656 1152.3 367.16L1151.4 365.288C1151.71 365.024 1152.28 364.676 1153.12 364.244C1153.96 363.812 1154.94 363.428 1156.04 363.092C1157.14 362.756 1158.25 362.588 1159.35 362.588C1161.06 362.588 1162.4 362.828 1163.38 363.308C1164.39 363.764 1165.11 364.508 1165.54 365.54C1165.98 366.572 1166.19 367.952 1166.19 369.68V381.236H1168.32V382.82C1167.84 382.94 1167.22 383.06 1166.48 383.18C1165.76 383.3 1165.12 383.36 1164.57 383.36C1163.9 383.36 1163.44 383.252 1163.2 383.036C1162.96 382.844 1162.84 382.4 1162.84 381.704V380.516C1162.12 381.236 1161.24 381.896 1160.18 382.496C1159.15 383.096 1157.97 383.396 1156.65 383.396C1154.92 383.396 1153.48 382.904 1152.33 381.92C1151.2 380.912 1150.64 379.472 1150.64 377.6ZM1158.2 380.948C1158.82 380.948 1159.54 380.756 1160.36 380.372C1161.18 379.988 1161.92 379.532 1162.59 379.004V372.812C1159.98 372.812 1158 373.22 1156.65 374.036C1155.33 374.828 1154.67 375.872 1154.67 377.168C1154.67 378.464 1154.98 379.424 1155.61 380.048C1156.26 380.648 1157.12 380.948 1158.2 380.948ZM1170.39 373.136C1170.39 371.144 1170.77 369.344 1171.54 367.736C1172.33 366.128 1173.48 364.856 1175 363.92C1176.53 362.96 1178.37 362.48 1180.5 362.48C1181.54 362.48 1182.42 362.576 1183.17 362.768C1183.91 362.96 1184.8 363.224 1185.83 363.56L1185.69 369.104H1183.35L1182.56 365.432C1182.41 364.76 1181.5 364.424 1179.82 364.424C1178.14 364.424 1176.81 365.108 1175.82 366.476C1174.86 367.82 1174.38 369.74 1174.38 372.236C1174.38 375.068 1174.92 377.228 1176 378.716C1177.11 380.18 1178.54 380.912 1180.29 380.912C1181.3 380.912 1182.24 380.756 1183.13 380.444C1184.04 380.132 1184.82 379.76 1185.47 379.328L1186.16 380.768C1185.51 381.44 1184.55 382.052 1183.28 382.604C1182.03 383.132 1180.76 383.396 1179.46 383.396C1177.49 383.396 1175.82 382.952 1174.46 382.064C1173.11 381.176 1172.09 379.964 1171.4 378.428C1170.72 376.868 1170.39 375.104 1170.39 373.136ZM1191.18 356.144L1188.38 355.748V354.2L1194.1 353.516H1194.14L1194.93 354.056V371.66L1194.86 373.784L1203.17 365.18L1200.47 364.676V363.02H1209.18V364.676L1206.34 365.18L1201.05 370.328L1207.89 380.948L1210.12 381.236V383H1201.37V381.236L1203.64 380.912L1198.56 372.56L1194.86 376.232L1194.93 378.068V380.912L1197.48 381.236V383H1188.92V381.236L1191.18 380.912V356.144ZM1214.21 380.12C1214.45 380.48 1214.95 380.804 1215.72 381.092C1216.51 381.38 1217.34 381.524 1218.21 381.524C1219.57 381.524 1220.58 381.26 1221.23 380.732C1221.88 380.204 1222.2 379.472 1222.2 378.536C1222.2 377.888 1222 377.324 1221.59 376.844C1221.18 376.364 1220.61 375.944 1219.86 375.584C1219.14 375.2 1218.1 374.744 1216.73 374.216C1214.88 373.52 1213.53 372.692 1212.66 371.732C1211.82 370.748 1211.4 369.464 1211.4 367.88C1211.4 366.824 1211.71 365.9 1212.34 365.108C1212.99 364.316 1213.86 363.704 1214.97 363.272C1216.09 362.816 1217.34 362.588 1218.71 362.588C1219.81 362.588 1220.77 362.672 1221.59 362.84C1222.43 363.008 1223.1 363.176 1223.61 363.344C1224.11 363.512 1224.45 363.62 1224.61 363.668V368.132H1222.42L1221.7 365.468C1221.55 365.18 1221.17 364.94 1220.55 364.748C1219.92 364.532 1219.23 364.424 1218.46 364.424C1217.38 364.424 1216.5 364.664 1215.83 365.144C1215.18 365.624 1214.86 366.272 1214.86 367.088C1214.86 367.808 1215.03 368.408 1215.36 368.888C1215.72 369.344 1216.17 369.716 1216.69 370.004C1217.22 370.292 1217.94 370.628 1218.85 371.012L1219.57 371.3C1220.92 371.828 1222.01 372.332 1222.85 372.812C1223.69 373.292 1224.39 373.928 1224.94 374.72C1225.51 375.488 1225.8 376.436 1225.8 377.564C1225.8 379.34 1225.11 380.756 1223.71 381.812C1222.35 382.868 1220.46 383.396 1218.06 383.396C1216.89 383.396 1215.65 383.24 1214.35 382.928C1213.08 382.592 1212.04 382.256 1211.22 381.92V377.312H1213.56L1214.21 380.12Z" fill="white"/>
<path d="M375.068 410.144L372.044 409.748V408.2L377.912 407.516H377.984L378.776 408.056V416.408L378.632 419.468C379.4 418.772 380.456 418.112 381.8 417.488C383.144 416.864 384.5 416.552 385.868 416.552C387.38 416.552 388.556 416.84 389.396 417.416C390.236 417.992 390.824 418.88 391.16 420.08C391.496 421.256 391.664 422.852 391.664 424.868V434.912L394.184 435.236V437H385.58V435.236L387.92 434.912V424.832C387.92 423.416 387.824 422.312 387.632 421.52C387.44 420.704 387.08 420.104 386.552 419.72C386.024 419.312 385.232 419.108 384.176 419.108C383.312 419.108 382.388 419.324 381.404 419.756C380.42 420.188 379.556 420.692 378.812 421.268V434.912L381.296 435.236V437H372.908V435.236L375.068 434.948V410.144ZM403.01 437.36C401.642 437.36 400.622 437.048 399.95 436.424C399.278 435.8 398.942 434.732 398.942 433.22V419.396H396.35V417.776C396.47 417.752 396.806 417.668 397.358 417.524C397.91 417.38 398.282 417.248 398.474 417.128C398.858 416.912 399.158 416.48 399.374 415.832C399.566 415.376 399.794 414.644 400.058 413.636C400.322 412.628 400.478 412.028 400.526 411.836H402.65L402.722 417.02H408.734V419.396H402.722V430.448C402.722 431.816 402.758 432.776 402.83 433.328C402.926 433.88 403.106 434.24 403.37 434.408C403.658 434.576 404.138 434.66 404.81 434.66C405.458 434.66 406.166 434.576 406.934 434.408C407.726 434.24 408.338 434.06 408.77 433.868L409.31 435.488C408.734 435.92 407.798 436.34 406.502 436.748C405.23 437.156 404.066 437.36 403.01 437.36ZM417.671 437.36C416.303 437.36 415.283 437.048 414.611 436.424C413.939 435.8 413.603 434.732 413.603 433.22V419.396H411.011V417.776C411.131 417.752 411.467 417.668 412.019 417.524C412.571 417.38 412.943 417.248 413.135 417.128C413.519 416.912 413.819 416.48 414.035 415.832C414.227 415.376 414.455 414.644 414.719 413.636C414.983 412.628 415.139 412.028 415.187 411.836H417.311L417.383 417.02H423.395V419.396H417.383V430.448C417.383 431.816 417.419 432.776 417.491 433.328C417.587 433.88 417.767 434.24 418.031 434.408C418.319 434.576 418.799 434.66 419.471 434.66C420.119 434.66 420.827 434.576 421.595 434.408C422.387 434.24 422.999 434.06 423.431 433.868L423.971 435.488C423.395 435.92 422.459 436.34 421.163 436.748C419.891 437.156 418.727 437.36 417.671 437.36ZM445.651 426.308C445.651 428.348 445.231 430.22 444.391 431.924C443.551 433.604 442.351 434.936 440.791 435.92C439.231 436.904 437.407 437.396 435.319 437.396C434.743 437.396 434.119 437.348 433.447 437.252C432.775 437.156 432.235 437.036 431.827 436.892L431.935 439.916V443.552L435.679 443.948V445.712H425.635V443.948L428.227 443.552V419.792L425.599 419.144V417.2L430.711 416.552H430.783L431.539 417.2V419.324C432.259 418.532 433.147 417.86 434.203 417.308C435.283 416.756 436.483 416.48 437.803 416.48C439.219 416.48 440.515 416.828 441.691 417.524C442.891 418.22 443.851 419.3 444.571 420.764C445.291 422.228 445.651 424.076 445.651 426.308ZM436.327 419C435.415 419 434.563 419.192 433.771 419.576C432.979 419.96 432.367 420.38 431.935 420.836V434.408C432.103 434.696 432.523 434.96 433.195 435.2C433.891 435.416 434.647 435.524 435.463 435.524C437.311 435.524 438.799 434.792 439.927 433.328C441.079 431.864 441.655 429.656 441.655 426.704C441.655 424.112 441.151 422.18 440.143 420.908C439.159 419.636 437.887 419 436.327 419ZM452.128 434.12C452.368 434.48 452.872 434.804 453.64 435.092C454.432 435.38 455.26 435.524 456.124 435.524C457.492 435.524 458.5 435.26 459.148 434.732C459.796 434.204 460.12 433.472 460.12 432.536C460.12 431.888 459.916 431.324 459.508 430.844C459.1 430.364 458.524 429.944 457.78 429.584C457.06 429.2 456.016 428.744 454.648 428.216C452.8 427.52 451.444 426.692 450.58 425.732C449.74 424.748 449.32 423.464 449.32 421.88C449.32 420.824 449.632 419.9 450.256 419.108C450.904 418.316 451.78 417.704 452.884 417.272C454.012 416.816 455.26 416.588 456.628 416.588C457.732 416.588 458.692 416.672 459.508 416.84C460.348 417.008 461.02 417.176 461.524 417.344C462.028 417.512 462.364 417.62 462.532 417.668V422.132H460.336L459.616 419.468C459.472 419.18 459.088 418.94 458.464 418.748C457.84 418.532 457.144 418.424 456.376 418.424C455.296 418.424 454.42 418.664 453.748 419.144C453.1 419.624 452.776 420.272 452.776 421.088C452.776 421.808 452.944 422.408 453.28 422.888C453.64 423.344 454.084 423.716 454.612 424.004C455.14 424.292 455.86 424.628 456.772 425.012L457.492 425.3C458.836 425.828 459.928 426.332 460.768 426.812C461.608 427.292 462.304 427.928 462.856 428.72C463.432 429.488 463.72 430.436 463.72 431.564C463.72 433.34 463.024 434.756 461.632 435.812C460.264 436.868 458.38 437.396 455.98 437.396C454.804 437.396 453.568 437.24 452.272 436.928C451 436.592 449.956 436.256 449.14 435.92V431.312H451.48L452.128 434.12ZM471.276 422.492C470.652 422.492 470.112 422.288 469.656 421.88C469.224 421.448 469.008 420.896 469.008 420.224C469.008 419.456 469.272 418.832 469.8 418.352C470.328 417.848 470.964 417.596 471.708 417.596C472.452 417.596 473.016 417.812 473.4 418.244C473.784 418.676 473.976 419.216 473.976 419.864C473.976 420.656 473.712 421.292 473.184 421.772C472.68 422.252 472.044 422.492 471.276 422.492ZM471.276 437.36C470.652 437.36 470.112 437.144 469.656 436.712C469.224 436.28 469.008 435.728 469.008 435.056C469.008 434.312 469.272 433.688 469.8 433.184C470.328 432.68 470.964 432.428 471.708 432.428C472.428 432.428 472.98 432.656 473.364 433.112C473.772 433.544 473.976 434.084 473.976 434.732C473.976 435.524 473.712 436.16 473.184 436.64C472.68 437.12 472.044 437.36 471.276 437.36ZM482.103 443.372H479.007L488.835 408.884H491.895L482.103 443.372ZM497.607 443.372H494.511L504.339 408.884H507.399L497.607 443.372ZM508.467 417.02H516.855V418.712L514.119 419.144L517.107 429.728L518.151 434.3L519.195 429.692L522.651 417.02H526.179L529.743 429.692L530.787 434.336L531.939 429.728L534.855 419.18L532.119 418.712V417.02H539.427V418.712L537.519 419.18L531.939 437.288H528.555L524.739 424.58L523.803 420.116L523.047 424.58L519.411 437.288H516.063L510.303 419.144L508.467 418.712V417.02ZM538.666 417.02H547.054V418.712L544.318 419.144L547.306 429.728L548.35 434.3L549.394 429.692L552.85 417.02H556.378L559.942 429.692L560.986 434.336L562.138 429.728L565.054 419.18L562.318 418.712V417.02H569.626V418.712L567.718 419.18L562.138 437.288H558.754L554.938 424.58L554.002 420.116L553.246 424.58L549.61 437.288H546.262L540.502 419.144L538.666 418.712V417.02ZM568.865 417.02H577.253V418.712L574.517 419.144L577.505 429.728L578.549 434.3L579.593 429.692L583.049 417.02H586.577L590.141 429.692L591.185 434.336L592.337 429.728L595.253 419.18L592.517 418.712V417.02H599.825V418.712L597.917 419.18L592.337 437.288H588.953L585.137 424.58L584.201 420.116L583.445 424.58L579.809 437.288H576.461L570.701 419.144L568.865 418.712V417.02ZM603.888 437.36C603.264 437.36 602.724 437.144 602.268 436.712C601.812 436.28 601.584 435.728 601.584 435.056C601.584 434.312 601.848 433.688 602.376 433.184C602.928 432.68 603.564 432.428 604.284 432.428C605.028 432.428 605.592 432.656 605.976 433.112C606.384 433.544 606.588 434.084 606.588 434.732C606.588 435.524 606.324 436.16 605.796 436.64C605.268 437.12 604.632 437.36 603.888 437.36ZM612.408 410.144L609.384 409.748V408.2L615.252 407.516H615.324L616.116 408.056V416.408L615.972 419.468C616.74 418.772 617.796 418.112 619.14 417.488C620.484 416.864 621.84 416.552 623.208 416.552C624.72 416.552 625.896 416.84 626.736 417.416C627.576 417.992 628.164 418.88 628.5 420.08C628.836 421.256 629.004 422.852 629.004 424.868V434.912L631.524 435.236V437H622.92V435.236L625.26 434.912V424.832C625.26 423.416 625.164 422.312 624.972 421.52C624.78 420.704 624.42 420.104 623.892 419.72C623.364 419.312 622.572 419.108 621.516 419.108C620.652 419.108 619.728 419.324 618.744 419.756C617.76 420.188 616.896 420.692 616.152 421.268V434.912L618.636 435.236V437H610.248V435.236L612.408 434.948V410.144ZM634.194 431.6C634.194 429.344 635.322 427.688 637.578 426.632C639.834 425.552 642.69 424.976 646.146 424.904V423.896C646.146 422.768 646.026 421.88 645.786 421.232C645.546 420.584 645.126 420.116 644.526 419.828C643.95 419.516 643.122 419.36 642.042 419.36C640.818 419.36 639.714 419.54 638.73 419.9C637.77 420.236 636.81 420.656 635.85 421.16L634.95 419.288C635.262 419.024 635.838 418.676 636.678 418.244C637.518 417.812 638.49 417.428 639.594 417.092C640.698 416.756 641.802 416.588 642.906 416.588C644.61 416.588 645.954 416.828 646.938 417.308C647.946 417.764 648.666 418.508 649.098 419.54C649.53 420.572 649.746 421.952 649.746 423.68V435.236H651.87V436.82C651.39 436.94 650.778 437.06 650.034 437.18C649.314 437.3 648.678 437.36 648.126 437.36C647.454 437.36 646.998 437.252 646.758 437.036C646.518 436.844 646.398 436.4 646.398 435.704V434.516C645.678 435.236 644.79 435.896 643.734 436.496C642.702 437.096 641.526 437.396 640.206 437.396C638.478 437.396 637.038 436.904 635.886 435.92C634.758 434.912 634.194 433.472 634.194 431.6ZM641.754 434.948C642.378 434.948 643.098 434.756 643.914 434.372C644.73 433.988 645.474 433.532 646.146 433.004V426.812C643.53 426.812 641.55 427.22 640.206 428.036C638.886 428.828 638.226 429.872 638.226 431.168C638.226 432.464 638.538 433.424 639.162 434.048C639.81 434.648 640.674 434.948 641.754 434.948ZM652.682 408.2L658.442 407.516H658.514L659.342 408.056V418.892C660.062 418.196 660.914 417.62 661.898 417.164C662.906 416.708 664.022 416.48 665.246 416.48C666.686 416.48 667.994 416.828 669.17 417.524C670.37 418.22 671.318 419.3 672.014 420.764C672.734 422.228 673.094 424.076 673.094 426.308C673.094 428.372 672.662 430.244 671.798 431.924C670.958 433.604 669.746 434.936 668.162 435.92C666.578 436.904 664.742 437.396 662.654 437.396C660.998 437.396 659.486 437.24 658.118 436.928C656.75 436.592 655.922 436.292 655.634 436.028V410.108L652.682 409.712V408.2ZM663.77 419.036C662.858 419.036 662.006 419.252 661.214 419.684C660.446 420.092 659.822 420.56 659.342 421.088V434.336C659.486 434.672 659.894 434.948 660.566 435.164C661.262 435.356 662.042 435.452 662.906 435.452C664.754 435.452 666.242 434.708 667.37 433.22C668.498 431.732 669.062 429.56 669.062 426.704C669.062 424.136 668.57 422.216 667.586 420.944C666.602 419.672 665.33 419.036 663.77 419.036ZM680.489 413.42C679.721 413.42 679.145 413.204 678.761 412.772C678.377 412.34 678.185 411.788 678.185 411.116C678.185 410.348 678.413 409.712 678.869 409.208C679.349 408.704 679.997 408.452 680.813 408.452C681.629 408.452 682.229 408.668 682.613 409.1C682.997 409.532 683.189 410.084 683.189 410.756C683.189 411.572 682.949 412.22 682.469 412.7C682.013 413.18 681.365 413.42 680.525 413.42H680.489ZM679.049 419.792L676.313 419.144V417.236L681.893 416.552H681.965L682.793 417.2V434.948L685.673 435.236V437H676.133V435.236L679.049 434.912V419.792ZM694.385 437.36C693.017 437.36 691.997 437.048 691.325 436.424C690.653 435.8 690.317 434.732 690.317 433.22V419.396H687.725V417.776C687.845 417.752 688.181 417.668 688.733 417.524C689.285 417.38 689.657 417.248 689.849 417.128C690.233 416.912 690.533 416.48 690.749 415.832C690.941 415.376 691.169 414.644 691.433 413.636C691.697 412.628 691.853 412.028 691.901 411.836H694.025L694.097 417.02H700.109V419.396H694.097V430.448C694.097 431.816 694.133 432.776 694.205 433.328C694.301 433.88 694.481 434.24 694.745 434.408C695.033 434.576 695.513 434.66 696.185 434.66C696.833 434.66 697.541 434.576 698.309 434.408C699.101 434.24 699.713 434.06 700.145 433.868L700.685 435.488C700.109 435.92 699.173 436.34 697.877 436.748C696.605 437.156 695.441 437.36 694.385 437.36ZM706.238 434.12C706.478 434.48 706.982 434.804 707.75 435.092C708.542 435.38 709.37 435.524 710.234 435.524C711.602 435.524 712.61 435.26 713.258 434.732C713.906 434.204 714.23 433.472 714.23 432.536C714.23 431.888 714.026 431.324 713.618 430.844C713.21 430.364 712.634 429.944 711.89 429.584C711.17 429.2 710.126 428.744 708.758 428.216C706.91 427.52 705.554 426.692 704.69 425.732C703.85 424.748 703.43 423.464 703.43 421.88C703.43 420.824 703.742 419.9 704.366 419.108C705.014 418.316 705.89 417.704 706.994 417.272C708.122 416.816 709.37 416.588 710.738 416.588C711.842 416.588 712.802 416.672 713.618 416.84C714.458 417.008 715.13 417.176 715.634 417.344C716.138 417.512 716.474 417.62 716.642 417.668V422.132H714.446L713.726 419.468C713.582 419.18 713.198 418.94 712.574 418.748C711.95 418.532 711.254 418.424 710.486 418.424C709.406 418.424 708.53 418.664 707.858 419.144C707.21 419.624 706.886 420.272 706.886 421.088C706.886 421.808 707.054 422.408 707.39 422.888C707.75 423.344 708.194 423.716 708.722 424.004C709.25 424.292 709.97 424.628 710.882 425.012L711.602 425.3C712.946 425.828 714.038 426.332 714.878 426.812C715.718 427.292 716.414 427.928 716.966 428.72C717.542 429.488 717.83 430.436 717.83 431.564C717.83 433.34 717.134 434.756 715.742 435.812C714.374 436.868 712.49 437.396 710.09 437.396C708.914 437.396 707.678 437.24 706.382 436.928C705.11 436.592 704.066 436.256 703.25 435.92V431.312H705.59L706.238 434.12ZM723.945 419.396H720.561V417.74L723.945 417.056V415.364C723.945 413.876 724.329 412.508 725.097 411.26C725.889 410.012 726.909 409.028 728.157 408.308C729.429 407.564 730.773 407.192 732.189 407.192C733.005 407.192 733.713 407.3 734.313 407.516V411.116C734.097 410.924 733.665 410.744 733.017 410.576C732.393 410.384 731.697 410.288 730.929 410.288C729.801 410.288 728.973 410.588 728.445 411.188C727.941 411.764 727.689 412.772 727.689 414.212V417.056H732.657V419.396H727.689V434.948L731.685 435.236V437H720.885V435.236L723.945 434.912V419.396ZM735.479 426.956C735.479 424.796 735.923 422.924 736.811 421.34C737.699 419.756 738.863 418.556 740.303 417.74C741.767 416.9 743.327 416.48 744.983 416.48C748.007 416.48 750.275 417.44 751.787 419.36C753.323 421.28 754.091 423.8 754.091 426.92C754.091 429.104 753.647 430.988 752.759 432.572C751.871 434.156 750.695 435.356 749.231 436.172C747.791 436.988 746.243 437.396 744.587 437.396C741.563 437.396 739.283 436.436 737.747 434.516C736.235 432.596 735.479 430.076 735.479 426.956ZM744.803 435.344C746.459 435.344 747.731 434.66 748.619 433.292C749.507 431.924 749.951 429.896 749.951 427.208C749.951 424.544 749.543 422.432 748.727 420.872C747.911 419.312 746.603 418.532 744.803 418.532C743.147 418.532 741.863 419.216 740.951 420.584C740.063 421.952 739.619 423.98 739.619 426.668C739.619 429.332 740.039 431.444 740.879 433.004C741.719 434.564 743.027 435.344 744.803 435.344ZM757.454 435.236L760.154 435.02V419.792L757.562 419.144V417.2L762.53 416.552H762.602L763.394 417.2V417.848L763.286 420.656H763.394C763.634 420.248 764.066 419.72 764.69 419.072C765.314 418.424 766.118 417.836 767.102 417.308C768.086 416.756 769.154 416.48 770.306 416.48C770.786 416.48 771.182 416.54 771.494 416.66V420.692C771.326 420.572 771.05 420.464 770.666 420.368C770.306 420.248 769.898 420.188 769.442 420.188C767.45 420.188 765.602 420.8 763.898 422.024V434.984L768.47 435.272V437H757.454V435.236ZM773.87 431.6C773.87 429.344 774.998 427.688 777.254 426.632C779.51 425.552 782.366 424.976 785.822 424.904V423.896C785.822 422.768 785.702 421.88 785.462 421.232C785.222 420.584 784.802 420.116 784.202 419.828C783.626 419.516 782.798 419.36 781.718 419.36C780.494 419.36 779.39 419.54 778.406 419.9C777.446 420.236 776.486 420.656 775.526 421.16L774.626 419.288C774.938 419.024 775.514 418.676 776.354 418.244C777.194 417.812 778.166 417.428 779.27 417.092C780.374 416.756 781.478 416.588 782.582 416.588C784.286 416.588 785.63 416.828 786.614 417.308C787.622 417.764 788.342 418.508 788.774 419.54C789.206 420.572 789.422 421.952 789.422 423.68V435.236H791.546V436.82C791.066 436.94 790.454 437.06 789.71 437.18C788.99 437.3 788.354 437.36 787.802 437.36C787.13 437.36 786.674 437.252 786.434 437.036C786.194 436.844 786.074 436.4 786.074 435.704V434.516C785.354 435.236 784.466 435.896 783.41 436.496C782.378 437.096 781.202 437.396 779.882 437.396C778.154 437.396 776.714 436.904 775.562 435.92C774.434 434.912 773.87 433.472 773.87 431.6ZM781.43 434.948C782.054 434.948 782.774 434.756 783.59 434.372C784.406 433.988 785.15 433.532 785.822 433.004V426.812C783.206 426.812 781.226 427.22 779.882 428.036C778.562 428.828 777.902 429.872 777.902 431.168C777.902 432.464 778.214 433.424 778.838 434.048C779.486 434.648 780.35 434.948 781.43 434.948ZM792.358 408.2L798.118 407.516H798.19L799.018 408.056V418.892C799.738 418.196 800.59 417.62 801.574 417.164C802.582 416.708 803.698 416.48 804.922 416.48C806.362 416.48 807.67 416.828 808.846 417.524C810.046 418.22 810.994 419.3 811.69 420.764C812.41 422.228 812.77 424.076 812.77 426.308C812.77 428.372 812.338 430.244 811.474 431.924C810.634 433.604 809.422 434.936 807.838 435.92C806.254 436.904 804.418 437.396 802.33 437.396C800.674 437.396 799.162 437.24 797.794 436.928C796.426 436.592 795.598 436.292 795.31 436.028V410.108L792.358 409.712V408.2ZM803.446 419.036C802.534 419.036 801.682 419.252 800.89 419.684C800.122 420.092 799.498 420.56 799.018 421.088V434.336C799.162 434.672 799.57 434.948 800.242 435.164C800.938 435.356 801.718 435.452 802.582 435.452C804.43 435.452 805.918 434.708 807.046 433.22C808.174 431.732 808.738 429.56 808.738 426.704C808.738 424.136 808.246 422.216 807.262 420.944C806.278 419.672 805.006 419.036 803.446 419.036ZM824.773 437.396C821.869 437.396 819.649 436.448 818.113 434.552C816.601 432.656 815.845 430.124 815.845 426.956C815.845 424.868 816.241 423.032 817.033 421.448C817.825 419.864 818.929 418.64 820.345 417.776C821.785 416.912 823.417 416.48 825.241 416.48C827.473 416.48 829.201 417.104 830.425 418.352C831.673 419.576 832.333 421.34 832.405 423.644C832.405 425.108 832.321 426.224 832.153 426.992H819.769C819.817 429.368 820.369 431.288 821.425 432.752C822.481 434.192 823.981 434.912 825.925 434.912C826.885 434.912 827.881 434.744 828.913 434.408C829.969 434.048 830.785 433.628 831.361 433.148L832.045 434.732C831.349 435.452 830.317 436.076 828.949 436.604C827.581 437.132 826.189 437.396 824.773 437.396ZM828.445 425.084C828.517 424.58 828.553 424.064 828.553 423.536C828.529 421.976 828.193 420.752 827.545 419.864C826.921 418.952 825.925 418.496 824.557 418.496C823.165 418.496 822.049 419 821.209 420.008C820.393 421.016 819.925 422.708 819.805 425.084H828.445ZM841.655 437.36C840.287 437.36 839.267 437.048 838.595 436.424C837.923 435.8 837.587 434.732 837.587 433.22V419.396H834.995V417.776C835.115 417.752 835.451 417.668 836.003 417.524C836.555 417.38 836.927 417.248 837.119 417.128C837.503 416.912 837.803 416.48 838.019 415.832C838.211 415.376 838.439 414.644 838.703 413.636C838.967 412.628 839.123 412.028 839.171 411.836H841.295L841.367 417.02H847.379V419.396H841.367V430.448C841.367 431.816 841.403 432.776 841.475 433.328C841.571 433.88 841.751 434.24 842.015 434.408C842.303 434.576 842.783 434.66 843.455 434.66C844.103 434.66 844.811 434.576 845.579 434.408C846.371 434.24 846.983 434.06 847.415 433.868L847.955 435.488C847.379 435.92 846.443 436.34 845.147 436.748C843.875 437.156 842.711 437.36 841.655 437.36ZM856.315 437.36C854.947 437.36 853.927 437.048 853.255 436.424C852.583 435.8 852.247 434.732 852.247 433.22V419.396H849.655V417.776C849.775 417.752 850.111 417.668 850.663 417.524C851.215 417.38 851.587 417.248 851.779 417.128C852.163 416.912 852.463 416.48 852.679 415.832C852.871 415.376 853.099 414.644 853.363 413.636C853.627 412.628 853.783 412.028 853.831 411.836H855.955L856.027 417.02H862.039V419.396H856.027V430.448C856.027 431.816 856.063 432.776 856.135 433.328C856.231 433.88 856.411 434.24 856.675 434.408C856.963 434.576 857.443 434.66 858.115 434.66C858.763 434.66 859.471 434.576 860.239 434.408C861.031 434.24 861.643 434.06 862.075 433.868L862.615 435.488C862.039 435.92 861.103 436.34 859.807 436.748C858.535 437.156 857.371 437.36 856.315 437.36ZM873.675 437.396C870.771 437.396 868.551 436.448 867.015 434.552C865.503 432.656 864.747 430.124 864.747 426.956C864.747 424.868 865.143 423.032 865.935 421.448C866.727 419.864 867.831 418.64 869.247 417.776C870.687 416.912 872.319 416.48 874.143 416.48C876.375 416.48 878.103 417.104 879.327 418.352C880.575 419.576 881.235 421.34 881.307 423.644C881.307 425.108 881.223 426.224 881.055 426.992H868.671C868.719 429.368 869.271 431.288 870.327 432.752C871.383 434.192 872.883 434.912 874.827 434.912C875.787 434.912 876.783 434.744 877.815 434.408C878.871 434.048 879.687 433.628 880.263 433.148L880.947 434.732C880.251 435.452 879.219 436.076 877.851 436.604C876.483 437.132 875.091 437.396 873.675 437.396ZM877.347 425.084C877.419 424.58 877.455 424.064 877.455 423.536C877.431 421.976 877.095 420.752 876.447 419.864C875.823 418.952 874.827 418.496 873.459 418.496C872.067 418.496 870.951 419 870.111 420.008C869.295 421.016 868.827 422.708 868.707 425.084H877.347ZM884.473 435.236L887.173 435.02V419.792L884.581 419.144V417.2L889.549 416.552H889.621L890.413 417.2V417.848L890.305 420.656H890.413C890.653 420.248 891.085 419.72 891.709 419.072C892.333 418.424 893.137 417.836 894.121 417.308C895.105 416.756 896.173 416.48 897.325 416.48C897.805 416.48 898.201 416.54 898.513 416.66V420.692C898.345 420.572 898.069 420.464 897.685 420.368C897.325 420.248 896.917 420.188 896.461 420.188C894.469 420.188 892.621 420.8 890.917 422.024V434.984L895.489 435.272V437H884.473V435.236ZM899.018 417.02H907.406V418.712L904.67 419.144L907.658 429.728L908.702 434.3L909.746 429.692L913.202 417.02H916.73L920.294 429.692L921.338 434.336L922.49 429.728L925.406 419.18L922.67 418.712V417.02H929.978V418.712L928.07 419.18L922.49 437.288H919.106L915.29 424.58L914.354 420.116L913.598 424.58L909.962 437.288H906.614L900.854 419.144L899.018 418.712V417.02ZM931.089 426.956C931.089 424.796 931.533 422.924 932.421 421.34C933.309 419.756 934.473 418.556 935.913 417.74C937.377 416.9 938.937 416.48 940.593 416.48C943.617 416.48 945.885 417.44 947.397 419.36C948.933 421.28 949.701 423.8 949.701 426.92C949.701 429.104 949.257 430.988 948.369 432.572C947.481 434.156 946.305 435.356 944.841 436.172C943.401 436.988 941.853 437.396 940.197 437.396C937.173 437.396 934.893 436.436 933.357 434.516C931.845 432.596 931.089 430.076 931.089 426.956ZM940.413 435.344C942.069 435.344 943.341 434.66 944.229 433.292C945.117 431.924 945.561 429.896 945.561 427.208C945.561 424.544 945.153 422.432 944.337 420.872C943.521 419.312 942.213 418.532 940.413 418.532C938.757 418.532 937.473 419.216 936.561 420.584C935.673 421.952 935.229 423.98 935.229 426.668C935.229 429.332 935.649 431.444 936.489 433.004C937.329 434.564 938.637 435.344 940.413 435.344ZM953.063 435.236L955.763 435.02V419.792L953.171 419.144V417.2L958.139 416.552H958.211L959.003 417.2V417.848L958.895 420.656H959.003C959.243 420.248 959.675 419.72 960.299 419.072C960.923 418.424 961.727 417.836 962.711 417.308C963.695 416.756 964.763 416.48 965.915 416.48C966.395 416.48 966.791 416.54 967.103 416.66V420.692C966.935 420.572 966.659 420.464 966.275 420.368C965.915 420.248 965.507 420.188 965.051 420.188C963.059 420.188 961.211 420.8 959.507 422.024V434.984L964.079 435.272V437H953.063V435.236ZM972.107 410.144L969.191 409.748V408.2L974.987 407.516H975.059L975.851 408.056V434.948L978.911 435.236V437H969.191V435.236L972.107 434.912V410.144ZM989.244 437.396C987.804 437.396 986.484 437.036 985.284 436.316C984.084 435.596 983.124 434.492 982.404 433.004C981.708 431.516 981.36 429.68 981.36 427.496C981.36 425.456 981.78 423.596 982.62 421.916C983.46 420.236 984.66 418.916 986.22 417.956C987.804 416.972 989.664 416.48 991.8 416.48C993.024 416.48 994.14 416.612 995.148 416.876V410.144L991.476 409.712V408.164L997.956 407.516H998.064L998.856 408.092V435.164H1000.94V436.82C1000.18 436.988 999.504 437.12 998.928 437.216C998.376 437.312 997.788 437.36 997.164 437.36C996.54 437.36 996.096 437.252 995.832 437.036C995.568 436.82 995.436 436.364 995.436 435.668V434.516C994.764 435.332 993.876 436.016 992.772 436.568C991.692 437.12 990.516 437.396 989.244 437.396ZM990.684 434.84C991.62 434.84 992.496 434.636 993.312 434.228C994.128 433.796 994.74 433.304 995.148 432.752V419.576C994.956 419.288 994.5 419.036 993.78 418.82C993.084 418.58 992.34 418.46 991.548 418.46C989.676 418.46 988.176 419.18 987.048 420.62C985.944 422.036 985.392 424.232 985.392 427.208C985.392 429.8 985.884 431.72 986.868 432.968C987.852 434.216 989.124 434.84 990.684 434.84ZM1006.78 437.36C1006.16 437.36 1005.62 437.144 1005.16 436.712C1004.7 436.28 1004.48 435.728 1004.48 435.056C1004.48 434.312 1004.74 433.688 1005.27 433.184C1005.82 432.68 1006.46 432.428 1007.18 432.428C1007.92 432.428 1008.48 432.656 1008.87 433.112C1009.28 433.544 1009.48 434.084 1009.48 434.732C1009.48 435.524 1009.22 436.16 1008.69 436.64C1008.16 437.12 1007.52 437.36 1006.78 437.36ZM1013.35 426.956C1013.35 424.796 1013.8 422.924 1014.69 421.34C1015.57 419.756 1016.74 418.556 1018.18 417.74C1019.64 416.9 1021.2 416.48 1022.86 416.48C1025.88 416.48 1028.15 417.44 1029.66 419.36C1031.2 421.28 1031.97 423.8 1031.97 426.92C1031.97 429.104 1031.52 430.988 1030.63 432.572C1029.75 434.156 1028.57 435.356 1027.11 436.172C1025.67 436.988 1024.12 437.396 1022.46 437.396C1019.44 437.396 1017.16 436.436 1015.62 434.516C1014.11 432.596 1013.35 430.076 1013.35 426.956ZM1022.68 435.344C1024.33 435.344 1025.61 434.66 1026.49 433.292C1027.38 431.924 1027.83 429.896 1027.83 427.208C1027.83 424.544 1027.42 422.432 1026.6 420.872C1025.79 419.312 1024.48 418.532 1022.68 418.532C1021.02 418.532 1019.74 419.216 1018.83 420.584C1017.94 421.952 1017.49 423.98 1017.49 426.668C1017.49 429.332 1017.91 431.444 1018.75 433.004C1019.59 434.564 1020.9 435.344 1022.68 435.344ZM1035.33 435.236L1038.03 435.02V419.792L1035.44 419.144V417.2L1040.4 416.552H1040.48L1041.27 417.2V417.848L1041.16 420.656H1041.27C1041.51 420.248 1041.94 419.72 1042.56 419.072C1043.19 418.424 1043.99 417.836 1044.98 417.308C1045.96 416.756 1047.03 416.48 1048.18 416.48C1048.66 416.48 1049.06 416.54 1049.37 416.66V420.692C1049.2 420.572 1048.92 420.464 1048.54 420.368C1048.18 420.248 1047.77 420.188 1047.32 420.188C1045.32 420.188 1043.48 420.8 1041.77 422.024V434.984L1046.34 435.272V437H1035.33V435.236ZM1060.35 446.72C1057.28 446.72 1055.05 446.228 1053.65 445.244C1052.29 444.284 1051.6 442.952 1051.6 441.248C1051.6 440.192 1051.93 439.22 1052.57 438.332C1053.25 437.444 1054.04 436.772 1054.95 436.316C1053.85 435.692 1053.29 434.684 1053.29 433.292C1053.29 432.428 1053.55 431.612 1054.05 430.844C1054.55 430.076 1055.21 429.488 1056.03 429.08C1054.83 428.552 1053.91 427.796 1053.26 426.812C1052.63 425.828 1052.32 424.664 1052.32 423.32C1052.32 421.928 1052.71 420.716 1053.47 419.684C1054.27 418.652 1055.3 417.86 1056.57 417.308C1057.87 416.756 1059.23 416.48 1060.67 416.48C1063.1 416.48 1064.99 416.984 1066.36 417.992C1066.72 417.632 1067.27 417.284 1068.02 416.948C1068.76 416.612 1069.55 416.444 1070.39 416.444H1071.62V419.612H1067.66C1068.23 420.5 1068.52 421.532 1068.52 422.708C1068.52 424.124 1068.16 425.384 1067.44 426.488C1066.75 427.568 1065.76 428.408 1064.49 429.008C1063.24 429.608 1061.83 429.908 1060.24 429.908C1059.21 429.908 1058.29 429.8 1057.47 429.584C1057.13 429.92 1056.86 430.292 1056.64 430.7C1056.43 431.108 1056.32 431.504 1056.32 431.888C1056.32 432.752 1056.61 433.352 1057.18 433.688C1057.76 434 1058.79 434.156 1060.28 434.156H1064.35C1066.67 434.156 1068.4 434.6 1069.53 435.488C1070.66 436.376 1071.22 437.636 1071.22 439.268C1071.22 440.636 1070.73 441.884 1069.75 443.012C1068.76 444.164 1067.43 445.064 1065.75 445.712C1064.09 446.384 1062.29 446.72 1060.35 446.72ZM1060.6 427.928C1063.34 427.928 1064.71 426.308 1064.71 423.068C1064.71 421.46 1064.35 420.284 1063.63 419.54C1062.93 418.772 1061.87 418.388 1060.46 418.388C1059.14 418.388 1058.09 418.76 1057.33 419.504C1056.56 420.224 1056.17 421.388 1056.17 422.996C1056.17 424.508 1056.53 425.708 1057.25 426.596C1058 427.484 1059.11 427.928 1060.6 427.928ZM1060.67 444.632C1061.85 444.632 1062.95 444.452 1063.99 444.092C1065.04 443.756 1065.89 443.24 1066.54 442.544C1067.19 441.872 1067.51 441.08 1067.51 440.168C1067.51 439.088 1067.23 438.296 1066.65 437.792C1066.07 437.312 1064.96 437.072 1063.3 437.072H1059.05C1058.09 437.072 1057.34 437.012 1056.79 436.892C1055.8 437.972 1055.31 439.184 1055.31 440.528C1055.31 441.872 1055.72 442.892 1056.53 443.588C1057.35 444.284 1058.73 444.632 1060.67 444.632ZM1076.38 443.372H1073.29L1083.12 408.884H1086.18L1076.38 443.372Z" fill="#67B6FF"/>
<path d="M68.6339 299.416C67.1064 281.281 63.6979 260.967 58.7865 243.466C58.2997 241.726 55.9693 232.926 55.057 232.415C52.4245 230.949 49.2095 237.784 49.7116 240.05L49.9253 312.082C49.0614 312.304 48.8481 310.615 48.6352 309.977C45.8239 301.507 43.8696 292.24 41.2883 283.605C39.3717 277.197 36.5837 264.966 33.7174 259.607C30.1674 252.97 26.2129 257.761 25.2085 263.108C21.536 282.606 26.6064 328.473 35.9551 345.898C49.217 370.623 76.2323 365.305 99.3266 360.98C117.026 346.361 130.288 325.722 134.086 302.803C135.236 295.874 138.641 275.804 126.19 278.659C113.519 281.567 115.46 304.058 107.41 311.721C107.725 295.384 108.372 278.991 108.056 262.634C107.799 249.251 107.641 233.531 106.185 220.356C105.842 217.25 103.781 203.759 98.5203 205.409C96.4596 206.055 93.1341 231.332 92.8013 234.995C91.0315 254.424 91.0861 274.119 90.0327 293.595C89.0229 293.869 89.3026 292.328 89.1787 291.615C88.5252 287.835 87.9963 283.612 87.5975 279.787C86.4043 268.378 85.4327 256.878 84.27 245.406C83.4377 237.195 83.646 225.278 81.8186 217.543C80.4251 211.648 75.6623 205.587 71.5606 213.358C70.8106 241.967 69.0093 270.716 69.226 299.339C69.2415 301.3 69.8012 303.411 69.1199 305.362C67.9369 305.527 68.6618 299.719 68.6369 299.416L68.6339 299.416Z" fill="#B0A726"/>
<path d="M203.796 89.9536C205.754 87.8898 205.893 83.759 206.765 80.8678C211.12 66.4766 221.584 45.1154 235.507 37.6975C246.606 31.7852 257.48 34.4915 261.325 46.7638C269.809 73.8361 244.07 111.422 228.785 132.988C220.057 145.305 208.614 157.36 200.467 169.434C199.012 171.592 199.174 175.911 194.165 173.053C192.843 172.3 186.736 165.872 185.262 164.275C162.035 139.15 138.349 86.037 139.014 52.0011C139.387 32.8269 152.791 18.3189 172.516 28.1801C191.12 37.4833 200.927 71.026 203.796 89.9536Z" fill="#F48BAB"/>
<path d="M1277.24 490.027C1274.9 481.324 1286.52 478.812 1287.09 488.869C1287.63 498.407 1278.09 501.535 1270.2 499.719C1251.25 495.357 1246.13 472.744 1266.57 466.306C1278.81 462.451 1309.69 464.926 1310.46 482.317C1310.7 487.963 1306.95 506.287 1304.04 511.118C1298.15 520.869 1286.33 518.368 1277.14 515.846C1248.8 508.068 1229.02 496.562 1241.17 463.364C1243.71 456.409 1246.72 451.556 1253.83 448.753C1267.14 443.504 1291.85 445.415 1305.93 448.166C1316.69 450.268 1321.14 454.182 1322.62 465.32C1324.81 481.801 1323.3 516.476 1315.57 531.235C1308.3 545.114 1293.23 541.33 1281.22 537.225C1270.55 533.58 1256.33 528.159 1246.16 523.466C1223.97 513.23 1222.51 497.86 1224.78 475.172C1225.68 466.24 1228.29 446.498 1233.49 439.586C1242.18 428.026 1268.48 422.708 1282.18 423.012C1283.44 423.041 1287.06 423.354 1288.16 423.6C1292.54 424.574 1292.84 432.22 1288.61 433.294C1285.22 434.155 1278.19 433.145 1274.21 433.416C1266.09 433.966 1245.89 438.977 1241.25 445.993C1237.48 451.712 1234.5 475.646 1234.13 483.169C1233.33 499.452 1235.08 507.12 1250.23 514.176C1261.6 519.468 1277.2 525.122 1289.18 529.201C1301.23 533.304 1306.18 532.011 1309.34 519.291C1313.22 503.647 1314.56 482.7 1312.84 466.683C1312.08 459.66 1310.21 459.042 1303.65 458.006C1291.07 456.017 1270.86 453.635 1258.87 457.605C1252.35 459.761 1250.71 465.591 1249.01 471.744C1245.73 483.65 1247.15 491.273 1258.08 497.782C1263.97 501.292 1285.16 508.563 1291.56 507.985C1293.51 507.808 1294.88 507.053 1295.91 505.301C1297.25 503.043 1299.99 488.668 1300.19 485.547C1300.42 481.938 1300.64 480.293 1297.24 478.623C1291.27 475.693 1281.25 474.4 1274.68 474.945C1256.06 476.483 1262.85 490.697 1277.25 490.032L1277.24 490.027Z" fill="#EC6725"/>
<path d="M312.935 228.232C312.832 228.217 311.964 227.786 312.001 227.672C312.624 226.763 313.097 225.845 313.901 225.062C316.858 222.181 323.729 218.488 327.492 215.745C342.422 204.867 356.973 193.452 372.479 183.369C373.587 182.903 374.917 182.903 376.02 183.369L387.559 191.358L388.123 183.074C388.739 182.46 398.816 185.853 400.328 186.447L400.32 201.507C404.359 205.229 408.703 208.651 412.697 212.418C417.156 216.625 423.958 222.874 427.693 227.476C428.197 228.097 428.955 228.91 429 229.739H412.312C412.1 229.739 411.737 230.372 411.75 230.68C411.819 240.161 412.785 249.625 413.25 259.093L329.458 259.475C327.796 248.906 327.098 238.17 326.991 227.483C326.759 227.216 324.892 228.234 324.556 228.234C321.206 228.234 316.006 228.688 312.93 228.234L312.935 228.232Z" fill="#603A51"/>
<path d="M1405.04 222.47L1378.1 220.937L1412 269.31C1403.06 269.649 1394.18 269.028 1385.48 266.911L1375.49 264.284C1383.96 284.436 1394.9 303.438 1407.22 321.406L1393.98 322.304C1365.64 323.013 1337.25 323.602 1309 321.846L1315.6 311.204C1325.45 297.14 1336.7 284.103 1349.42 272.596C1338.25 272.119 1327.13 270.661 1316.39 267.559C1316.27 267.399 1317.22 266.108 1317.47 265.804C1328.63 252.123 1341.56 239.631 1352.45 225.744C1354.97 222.533 1357.88 218.816 1352.46 216.566L1326.82 212.838L1327.24 211.733C1343.7 196.586 1360.35 181.611 1376.36 166L1405.04 222.47Z" fill="#387667"/>
<path d="M1256 143.668L1250.18 139.335C1243.65 137.203 1235.86 138.785 1232.04 144.715C1237.46 147.313 1241.26 150.756 1243.44 156.408C1251.04 176.055 1237.47 202.867 1222.5 216C1227.56 200.832 1225.95 181.93 1213.23 170.908C1212.32 170.73 1203.15 177.777 1201.2 179.001C1184.5 189.508 1162.51 199.135 1143.31 203.991C1140.86 204.61 1124.86 208.293 1124.12 207.663C1123.38 207.034 1124.48 205.851 1125.45 205.872L1135.39 198.631C1126.03 200.001 1116.48 201.034 1107.19 198.617L1120.79 191.529C1138.7 180.476 1157.87 170.957 1172.09 155.166C1173.2 153.932 1179 146.986 1179.14 146.117C1179.39 144.576 1178.75 145.289 1178.12 145.004C1168.44 140.66 1141.95 134.639 1131.6 135.415C1120.32 136.257 1109.47 141.449 1098.02 140.889C1097.56 133.3 1105.74 128.052 1111.65 124.772C1134.86 111.883 1167.51 112.328 1191.6 122.682C1194.43 123.899 1200.6 128.09 1202.82 128.351C1206.92 128.831 1212.17 124.859 1216.49 123.823C1231.96 120.108 1250.78 128.386 1256 143.665V143.668Z" fill="#F48BAB"/>
<path d="M273.278 453.374C250.247 478.751 218.707 496.738 185.734 504.877C180.846 506.082 174.589 506.486 170.132 507.936C165.624 509.4 159.55 513.067 155.192 515.379C147.952 519.22 140.955 523.616 133.787 527.594C129.38 528.929 125.803 522.75 129.609 519.725C133.236 516.128 148.263 510.667 150.589 507.498C151.297 506.53 151.987 500.923 152.515 499.177C157.739 481.988 173.871 450.116 188.105 439.521C192.008 436.614 194.014 435.072 193.197 441.431C191.497 454.694 172.573 484.802 165.726 497.908C165.441 498.454 164.607 499.84 165.374 500.283C167.345 498.458 170.695 498.24 172.601 496.33C174.89 494.035 176.702 490.311 178.914 487.758C199.673 463.818 234.29 449.141 265.662 451.914C266.922 452.026 273.143 452.316 273.278 453.374Z" fill="#387667"/>
<path d="M1000 25L998.576 50.3372C998.837 79.8973 998.053 109.548 999.304 139H900.364C901.395 129.334 902.221 120.239 899.015 110.802C898.771 109.76 901.577 107.72 902.103 107.72H939.382L933.809 68.7927H962.726C963.451 68.7927 965.166 67.0827 965.166 66.3598V25H1000H1000Z" fill="#B0A726"/>
<g clip-path="url(#clip1_146_237)">
<path d="M641.2 285.787V163.727C607.4 163.727 580 191.051 580 224.757C580 258.464 607.4 285.787 641.2 285.787Z" fill="#339DFF"/>
<path d="M651.42 163.624H656.843V172.775H667.376V163.624H672.799V188.169H667.376V177.56H656.843V188.169H651.42V163.624Z" fill="white"/>
<path d="M685.904 163.624H690.389L701.096 188.169H694.977L692.857 182.968H683.296L681.246 188.169H675.267L685.904 163.624ZM687.989 170.765L685 178.391H691.015L687.989 170.765Z" fill="white"/>
<path d="M703.563 163.624H712.74C713.805 163.624 714.879 163.698 715.957 163.848C717.033 164.001 718 164.299 718.86 164.75C719.717 165.201 720.411 165.831 720.945 166.639C721.478 167.45 721.743 168.525 721.743 169.864C721.743 171.25 721.355 172.401 720.58 173.313C719.804 174.227 718.777 174.879 717.504 175.272V175.342C718.314 175.456 719.051 175.683 719.71 176.017C720.37 176.353 720.939 176.781 721.414 177.299C721.89 177.82 722.254 178.427 722.509 179.121C722.764 179.813 722.891 180.554 722.891 181.339C722.891 182.633 722.613 183.713 722.057 184.58C721.501 185.448 720.782 186.146 719.901 186.677C719.021 187.21 718.03 187.591 716.929 187.822C715.828 188.052 714.733 188.169 713.644 188.169H703.564L703.563 163.624ZM708.987 173.436H712.914C713.332 173.436 713.742 173.389 714.149 173.296C714.554 173.203 714.919 173.053 715.244 172.845C715.569 172.638 715.828 172.361 716.025 172.014C716.222 171.667 716.322 171.25 716.322 170.765C716.322 170.258 716.212 169.834 715.991 169.5C715.77 169.166 715.486 168.905 715.14 168.719C714.792 168.535 714.397 168.402 713.956 168.322C713.517 168.241 713.088 168.201 712.67 168.201H708.987V173.436ZM708.987 183.592H713.852C714.27 183.592 714.692 183.545 715.121 183.454C715.55 183.361 715.938 183.198 716.286 182.968C716.634 182.737 716.918 182.437 717.139 182.066C717.357 181.698 717.468 181.248 717.468 180.714C717.468 180.137 717.323 179.669 717.033 179.312C716.744 178.952 716.379 178.681 715.938 178.497C715.499 178.311 715.023 178.184 714.514 178.114C714.003 178.046 713.527 178.01 713.088 178.01H708.987V183.592Z" fill="white"/>
<path d="M726.021 163.624H731.444V188.169H726.021V163.624Z" fill="white"/>
<path d="M741.141 168.408H734.12V163.624H753.587V168.408H746.564V188.169H741.141L741.141 168.408Z" fill="white"/>
<path d="M768.499 169.621C768.058 169.066 767.461 168.656 766.708 168.391C765.955 168.125 765.242 167.991 764.572 167.991C764.177 167.991 763.772 168.038 763.354 168.131C762.938 168.224 762.543 168.368 762.172 168.565C761.8 168.762 761.499 169.02 761.268 169.343C761.037 169.667 760.92 170.061 760.92 170.522C760.92 171.263 761.198 171.83 761.756 172.221C762.312 172.615 763.012 172.949 763.859 173.226C764.703 173.503 765.613 173.781 766.587 174.058C767.561 174.337 768.469 174.728 769.316 175.238C770.163 175.746 770.863 176.428 771.419 177.282C771.975 178.137 772.255 179.282 772.255 180.714C772.255 182.079 771.998 183.268 771.489 184.286C770.979 185.304 770.29 186.146 769.42 186.817C768.552 187.487 767.542 187.982 766.396 188.306C765.248 188.63 764.037 188.793 762.764 188.793C761.164 188.793 759.681 188.549 758.314 188.065C756.946 187.578 755.671 186.793 754.489 185.706L758.348 181.478C758.904 182.217 759.604 182.79 760.451 183.194C761.298 183.598 762.172 183.799 763.076 183.799C763.517 183.799 763.963 183.748 764.415 183.645C764.867 183.539 765.272 183.385 765.63 183.175C765.991 182.968 766.28 182.703 766.5 182.379C766.721 182.056 766.831 181.675 766.831 181.235C766.831 180.496 766.547 179.912 765.978 179.485C765.41 179.058 764.699 178.694 763.842 178.391C762.982 178.093 762.055 177.792 761.06 177.49C760.063 177.191 759.135 176.785 758.278 176.277C757.421 175.769 756.708 175.099 756.142 174.267C755.573 173.436 755.289 172.337 755.289 170.973C755.289 169.657 755.55 168.501 756.072 167.507C756.594 166.512 757.287 165.681 758.157 165.01C759.025 164.341 760.029 163.838 761.164 163.504C762.299 163.167 763.47 163 764.676 163C766.065 163 767.411 163.197 768.707 163.588C770.005 163.982 771.177 164.642 772.219 165.564L768.499 169.621Z" fill="white"/>
<path d="M651.305 196.124H667.817V201.116H656.728V206.107H666.983V211.101H656.728V220.669H651.305V196.124Z" fill="white"/>
<path d="M670.388 208.397C670.388 206.433 670.719 204.651 671.379 203.058C672.039 201.463 672.96 200.104 674.144 198.985C675.326 197.864 676.726 197.002 678.349 196.402C679.97 195.801 681.744 195.5 683.669 195.5C685.591 195.5 687.365 195.801 688.986 196.402C690.609 197.002 692.012 197.864 693.193 198.985C694.375 200.104 695.296 201.463 695.956 203.058C696.618 204.651 696.947 206.433 696.947 208.397C696.947 210.36 696.618 212.14 695.956 213.735C695.296 215.33 694.375 216.687 693.193 217.808C692.012 218.93 690.609 219.791 688.986 220.392C687.365 220.993 685.591 221.293 683.669 221.293C681.744 221.293 679.97 220.993 678.349 220.392C676.726 219.791 675.326 218.93 674.144 217.808C672.96 216.687 672.039 215.33 671.379 213.735C670.719 212.14 670.388 210.36 670.388 208.397ZM676.019 208.397C676.019 209.552 676.2 210.61 676.558 211.568C676.917 212.527 677.433 213.361 678.105 214.065C678.778 214.77 679.584 215.318 680.522 215.711C681.46 216.105 682.508 216.299 683.669 216.299C684.827 216.299 685.875 216.105 686.813 215.711C687.753 215.318 688.557 214.77 689.23 214.065C689.902 213.361 690.418 212.527 690.777 211.568C691.135 210.61 691.316 209.552 691.316 208.397C691.316 207.265 691.135 206.213 690.777 205.242C690.418 204.271 689.902 203.433 689.23 202.728C688.557 202.024 687.753 201.475 686.813 201.082C685.875 200.688 684.827 200.492 683.669 200.492C682.508 200.492 681.46 200.688 680.522 201.082C679.584 201.476 678.778 202.024 678.105 202.728C677.433 203.433 676.917 204.271 676.558 205.242C676.2 206.213 676.019 207.265 676.019 208.397Z" fill="white"/>
<path d="M700.632 196.124H710.157C711.409 196.124 712.595 196.245 713.72 196.488C714.844 196.732 715.829 197.136 716.675 197.701C717.52 198.268 718.192 199.032 718.691 199.99C719.19 200.949 719.438 202.144 719.438 203.577C719.438 205.312 718.986 206.784 718.082 207.997C717.178 209.211 715.858 209.979 714.121 210.303L720.378 220.669H713.877L708.731 210.857H706.056V220.669H700.632L700.632 196.124ZM706.056 206.281H709.253C709.739 206.281 710.255 206.264 710.8 206.23C711.343 206.194 711.838 206.09 712.277 205.917C712.718 205.743 713.083 205.472 713.372 205.102C713.662 204.734 713.807 204.214 713.807 203.543C713.807 202.919 713.679 202.421 713.425 202.053C713.17 201.683 712.845 201.399 712.451 201.203C712.056 201.006 711.604 200.873 711.095 200.805C710.586 200.735 710.087 200.701 709.601 200.701H706.056L706.056 206.281Z" fill="white"/>
<path d="M741.549 196.124H746.035L756.741 220.669H750.622L748.502 215.468H738.941L736.892 220.669H730.913L741.549 196.124ZM743.635 203.266L740.645 210.891H746.661L743.635 203.266Z" fill="white"/>
<path d="M651.097 228.625H660.273C661.339 228.625 662.412 228.699 663.49 228.849C664.566 229.001 665.533 229.3 666.393 229.75C667.25 230.201 667.944 230.832 668.479 231.64C669.011 232.45 669.276 233.525 669.276 234.864C669.276 236.25 668.888 237.401 668.114 238.313C667.337 239.227 666.31 239.879 665.037 240.273V240.343C665.847 240.457 666.584 240.683 667.244 241.017C667.903 241.354 668.472 241.781 668.947 242.3C669.423 242.82 669.788 243.427 670.042 244.122C670.297 244.813 670.424 245.554 670.424 246.339C670.424 247.634 670.146 248.713 669.59 249.581C669.034 250.448 668.315 251.146 667.435 251.677C666.554 252.211 665.563 252.591 664.462 252.822C663.361 253.053 662.266 253.169 661.177 253.169H651.097L651.097 228.625ZM656.52 238.436H660.447C660.865 238.436 661.275 238.39 661.682 238.296C662.088 238.203 662.453 238.053 662.777 237.846C663.102 237.638 663.361 237.361 663.558 237.014C663.755 236.667 663.855 236.25 663.855 235.766C663.855 235.258 663.745 234.835 663.524 234.5C663.303 234.166 663.019 233.906 662.673 233.72C662.325 233.536 661.931 233.402 661.489 233.322C661.05 233.242 660.622 233.201 660.203 233.201H656.52V238.436ZM656.52 248.592H661.385C661.803 248.592 662.226 248.546 662.654 248.455C663.083 248.362 663.471 248.199 663.819 247.968C664.167 247.738 664.451 247.437 664.672 247.067C664.891 246.699 665.001 246.248 665.001 245.715C665.001 245.137 664.857 244.67 664.566 244.312C664.277 243.952 663.912 243.681 663.471 243.497C663.032 243.311 662.557 243.184 662.047 243.114C661.536 243.047 661.061 243.011 660.621 243.011H656.52V248.592Z" fill="#339DFF"/>
<path d="M673.832 228.625H690.554V233.616H679.255V238.193H689.928V243.184H679.255V248.176H691.18V253.169H673.832L673.832 228.625Z" fill="#339DFF"/>
<path d="M700.287 233.409H693.266V228.625H712.733V233.409H705.71V253.169H700.287L700.287 233.409Z" fill="#339DFF"/>
<path d="M721.21 233.409H714.189V228.625H733.657V233.409H726.633V253.169H721.21L721.21 233.409Z" fill="#339DFF"/>
<path d="M736.61 228.625H753.332V233.616H742.033V238.193H752.706V243.184H742.033V248.176H753.958V253.169H736.61L736.61 228.625Z" fill="#339DFF"/>
<path d="M757.01 228.625H766.535C767.787 228.625 768.973 228.745 770.097 228.989C771.222 229.232 772.206 229.636 773.053 230.201C773.897 230.768 774.57 231.532 775.069 232.49C775.567 233.449 775.816 234.644 775.816 236.077C775.816 237.812 775.364 239.285 774.46 240.497C773.556 241.711 772.236 242.48 770.498 242.803L776.756 253.169H770.254L765.109 243.358H762.433V253.169H757.01L757.01 228.625ZM762.433 238.781H765.631C766.117 238.781 766.632 238.764 767.178 238.73C767.721 238.694 768.215 238.591 768.655 238.417C769.096 238.244 769.461 237.973 769.749 237.602C770.04 237.234 770.184 236.714 770.184 236.043C770.184 235.419 770.057 234.922 769.802 234.553C769.548 234.183 769.223 233.9 768.828 233.703C768.434 233.506 767.982 233.373 767.473 233.305C766.963 233.235 766.465 233.201 765.979 233.201H762.433L762.433 238.781Z" fill="#339DFF"/>
<path d="M648.846 261.125H654.758L658.685 276.863H658.755L663.9 261.125H668.94L674.051 277.28H674.119L678.257 261.125H683.75L676.553 285.669H671.721L666.298 268.683H666.228L660.805 285.669H656.147L648.846 261.125Z" fill="white"/>
<path d="M684.862 273.397C684.862 271.434 685.193 269.652 685.853 268.059C686.513 266.463 687.433 265.105 688.617 263.986C689.799 262.864 691.2 262.003 692.823 261.402C694.444 260.801 696.218 260.501 698.142 260.501C700.065 260.501 701.838 260.801 703.459 261.402C705.083 262.003 706.485 262.864 707.667 263.986C708.849 265.105 709.77 266.463 710.43 268.059C711.092 269.652 711.42 271.434 711.42 273.397C711.42 275.361 711.092 277.14 710.43 278.736C709.77 280.331 708.849 281.687 707.667 282.809C706.485 283.93 705.083 284.791 703.459 285.392C701.838 285.993 700.065 286.294 698.142 286.294C696.218 286.294 694.444 285.993 692.823 285.392C691.2 284.791 689.799 283.93 688.617 282.809C687.433 281.687 686.513 280.331 685.853 278.736C685.193 277.14 684.862 275.361 684.862 273.397ZM690.493 273.397C690.493 274.552 690.673 275.61 691.032 276.569C691.391 277.527 691.906 278.361 692.579 279.066C693.251 279.77 694.058 280.318 694.996 280.712C695.933 281.105 696.982 281.3 698.142 281.3C699.301 281.3 700.349 281.105 701.287 280.712C702.227 280.318 703.031 279.77 703.703 279.066C704.376 278.361 704.892 277.527 705.25 276.569C705.609 275.61 705.789 274.552 705.789 273.397C705.789 272.265 705.609 271.213 705.25 270.242C704.892 269.271 704.376 268.433 703.703 267.729C703.031 267.024 702.227 266.476 701.287 266.082C700.349 265.689 699.301 265.492 698.142 265.492C696.982 265.492 695.933 265.689 694.996 266.082C694.058 266.476 693.251 267.024 692.579 267.729C691.906 268.433 691.391 269.271 691.032 270.242C690.673 271.213 690.493 272.265 690.493 273.397Z" fill="white"/>
<path d="M715.106 261.125H724.631C725.883 261.125 727.069 261.245 728.193 261.489C729.318 261.732 730.302 262.136 731.149 262.701C731.993 263.268 732.666 264.032 733.165 264.991C733.663 265.949 733.912 267.145 733.912 268.577C733.912 270.312 733.46 271.785 732.556 272.997C731.652 274.212 730.332 274.98 728.594 275.303L734.852 285.669H728.35L723.205 275.858H720.529V285.669H715.106L715.106 261.125ZM720.529 271.281H723.727C724.213 271.281 724.728 271.264 725.274 271.23C725.817 271.194 726.311 271.091 726.75 270.917C727.192 270.744 727.557 270.473 727.845 270.103C728.136 269.734 728.28 269.214 728.28 268.543C728.28 267.919 728.153 267.422 727.898 267.054C727.644 266.683 727.319 266.4 726.924 266.203C726.53 266.006 726.078 265.873 725.569 265.805C725.059 265.735 724.561 265.702 724.075 265.702H720.529L720.529 271.281Z" fill="white"/>
<path d="M737.841 261.125H743.265V280.676H753.311V285.669H737.841V261.125Z" fill="white"/>
<path d="M756.301 261.125H764.436C766.405 261.125 768.276 261.345 770.05 261.783C771.822 262.223 773.369 262.934 774.69 263.916C776.01 264.897 777.058 266.176 777.837 267.746C778.612 269.318 779 271.224 779 273.467C779 275.454 778.624 277.204 777.871 278.719C777.118 280.231 776.104 281.503 774.828 282.531C773.553 283.56 772.083 284.34 770.415 284.872C768.745 285.403 766.995 285.669 765.166 285.669H756.301L756.301 261.125ZM761.724 280.676H764.54C765.79 280.676 766.954 280.551 768.032 280.295C769.11 280.041 770.044 279.62 770.831 279.03C771.618 278.441 772.24 277.667 772.692 276.706C773.144 275.748 773.369 274.576 773.369 273.19C773.369 271.988 773.144 270.941 772.692 270.052C772.24 269.161 771.631 268.429 770.867 267.849C770.101 267.272 769.204 266.84 768.172 266.55C767.141 266.262 766.057 266.116 764.922 266.116H761.724L761.724 280.676Z" fill="white"/>
</g>
</g>
<defs>
<clipPath id="clip0_146_237">
<rect width="1440" height="572" rx="12" fill="white"/>
</clipPath>
<clipPath id="clip1_146_237">
<rect width="199" height="123.293" fill="white" transform="translate(580 163)"/>
</clipPath>
</defs>
</svg>
