<svg width="1440" height="572" viewBox="0 0 1440 572" fill="none" xmlns="http://www.w3.org/2000/svg">
<g clip-path="url(#clip0_147_389)">
<rect width="1440" height="572" fill="#121619"/>
<path d="M68.6339 299.416C67.1064 281.281 63.6979 260.967 58.7865 243.466C58.2997 241.726 55.9693 232.926 55.057 232.415C52.4245 230.949 49.2095 237.784 49.7116 240.05L49.9253 312.082C49.0614 312.304 48.8481 310.615 48.6352 309.977C45.8239 301.507 43.8696 292.24 41.2883 283.605C39.3717 277.197 36.5837 264.966 33.7174 259.607C30.1674 252.97 26.2129 257.761 25.2085 263.108C21.536 282.606 26.6064 328.473 35.9551 345.898C49.217 370.623 76.2323 365.305 99.3266 360.98C117.026 346.361 130.288 325.722 134.086 302.803C135.236 295.874 138.641 275.804 126.19 278.659C113.519 281.567 115.46 304.058 107.41 311.721C107.725 295.384 108.372 278.991 108.056 262.634C107.799 249.251 107.641 233.531 106.185 220.356C105.842 217.25 103.781 203.759 98.5203 205.409C96.4596 206.055 93.1341 231.332 92.8013 234.995C91.0315 254.424 91.0861 274.119 90.0327 293.595C89.0229 293.869 89.3026 292.328 89.1787 291.615C88.5252 287.835 87.9963 283.612 87.5975 279.787C86.4043 268.378 85.4327 256.878 84.27 245.406C83.4377 237.195 83.646 225.278 81.8186 217.543C80.4251 211.648 75.6623 205.587 71.5606 213.358C70.8106 241.967 69.0093 270.716 69.226 299.339C69.2415 301.3 69.8012 303.411 69.1199 305.362C67.9369 305.527 68.6618 299.719 68.6369 299.416L68.6339 299.416Z" fill="#B0A726"/>
<path d="M203.796 89.9536C205.754 87.8898 205.893 83.759 206.765 80.8678C211.12 66.4766 221.584 45.1154 235.507 37.6975C246.606 31.7852 257.48 34.4915 261.325 46.7638C269.809 73.8361 244.07 111.422 228.785 132.988C220.057 145.305 208.614 157.36 200.467 169.434C199.012 171.592 199.174 175.911 194.165 173.053C192.843 172.3 186.736 165.872 185.262 164.275C162.035 139.15 138.349 86.037 139.014 52.0011C139.387 32.8269 152.791 18.3189 172.516 28.1801C191.12 37.4833 200.927 71.026 203.796 89.9536Z" fill="#F48BAB"/>
<path d="M1277.24 490.027C1274.9 481.324 1286.52 478.812 1287.09 488.869C1287.63 498.407 1278.09 501.535 1270.2 499.719C1251.25 495.357 1246.13 472.744 1266.57 466.306C1278.81 462.451 1309.69 464.926 1310.46 482.317C1310.7 487.963 1306.95 506.287 1304.04 511.118C1298.15 520.869 1286.33 518.368 1277.14 515.846C1248.8 508.068 1229.02 496.562 1241.17 463.364C1243.71 456.409 1246.72 451.556 1253.83 448.753C1267.14 443.504 1291.85 445.415 1305.93 448.166C1316.69 450.268 1321.14 454.182 1322.62 465.32C1324.81 481.801 1323.3 516.476 1315.57 531.235C1308.3 545.114 1293.23 541.33 1281.22 537.225C1270.55 533.58 1256.33 528.159 1246.16 523.466C1223.97 513.23 1222.51 497.86 1224.78 475.172C1225.68 466.24 1228.29 446.498 1233.49 439.586C1242.18 428.026 1268.48 422.708 1282.18 423.012C1283.44 423.041 1287.06 423.354 1288.16 423.6C1292.54 424.574 1292.84 432.22 1288.61 433.294C1285.22 434.155 1278.19 433.145 1274.21 433.416C1266.09 433.966 1245.89 438.977 1241.25 445.993C1237.48 451.712 1234.5 475.646 1234.13 483.169C1233.33 499.452 1235.08 507.12 1250.23 514.176C1261.6 519.468 1277.2 525.122 1289.18 529.201C1301.23 533.304 1306.18 532.011 1309.34 519.291C1313.22 503.647 1314.56 482.7 1312.84 466.683C1312.08 459.66 1310.21 459.042 1303.65 458.006C1291.07 456.017 1270.86 453.635 1258.87 457.605C1252.35 459.761 1250.71 465.591 1249.01 471.744C1245.73 483.65 1247.15 491.273 1258.08 497.782C1263.97 501.292 1285.16 508.563 1291.56 507.985C1293.51 507.808 1294.88 507.053 1295.91 505.301C1297.25 503.043 1299.99 488.668 1300.19 485.547C1300.42 481.938 1300.64 480.293 1297.24 478.623C1291.27 475.693 1281.25 474.4 1274.68 474.945C1256.06 476.483 1262.85 490.697 1277.25 490.032L1277.24 490.027Z" fill="#EC6725"/>
<path d="M312.935 228.232C312.832 228.217 311.964 227.786 312.001 227.672C312.624 226.763 313.097 225.845 313.901 225.062C316.858 222.181 323.729 218.488 327.492 215.745C342.422 204.867 356.973 193.452 372.479 183.369C373.587 182.903 374.917 182.903 376.02 183.369L387.559 191.358L388.123 183.074C388.739 182.46 398.816 185.853 400.328 186.447L400.32 201.507C404.359 205.229 408.703 208.651 412.697 212.418C417.156 216.625 423.958 222.874 427.693 227.476C428.197 228.097 428.955 228.91 429 229.739H412.312C412.1 229.739 411.737 230.372 411.75 230.68C411.819 240.161 412.785 249.625 413.25 259.093L329.458 259.475C327.796 248.906 327.098 238.17 326.991 227.483C326.759 227.216 324.892 228.234 324.556 228.234C321.206 228.234 316.006 228.688 312.93 228.234L312.935 228.232Z" fill="#603A51"/>
<path d="M1405.04 222.47L1378.1 220.937L1412 269.31C1403.06 269.649 1394.18 269.028 1385.48 266.911L1375.49 264.284C1383.96 284.436 1394.9 303.438 1407.22 321.406L1393.98 322.304C1365.64 323.013 1337.25 323.602 1309 321.846L1315.6 311.204C1325.45 297.14 1336.7 284.103 1349.42 272.596C1338.25 272.119 1327.13 270.661 1316.39 267.559C1316.27 267.399 1317.22 266.108 1317.47 265.804C1328.63 252.123 1341.56 239.631 1352.45 225.744C1354.97 222.533 1357.88 218.816 1352.46 216.566L1326.82 212.838L1327.24 211.733C1343.7 196.586 1360.35 181.611 1376.36 166L1405.04 222.47Z" fill="#387667"/>
<path d="M1256 143.668L1250.18 139.335C1243.65 137.203 1235.86 138.785 1232.04 144.715C1237.46 147.313 1241.26 150.756 1243.44 156.408C1251.04 176.055 1237.47 202.867 1222.5 216C1227.56 200.832 1225.95 181.93 1213.23 170.908C1212.32 170.73 1203.15 177.777 1201.2 179.001C1184.5 189.508 1162.51 199.135 1143.31 203.991C1140.86 204.61 1124.86 208.293 1124.12 207.663C1123.38 207.034 1124.48 205.851 1125.45 205.872L1135.39 198.631C1126.03 200.001 1116.48 201.034 1107.19 198.617L1120.79 191.529C1138.7 180.476 1157.87 170.957 1172.09 155.166C1173.2 153.932 1179 146.986 1179.14 146.117C1179.39 144.576 1178.75 145.289 1178.12 145.004C1168.44 140.66 1141.95 134.639 1131.6 135.415C1120.32 136.257 1109.47 141.449 1098.02 140.889C1097.56 133.3 1105.74 128.052 1111.65 124.772C1134.86 111.883 1167.51 112.328 1191.6 122.682C1194.43 123.899 1200.6 128.09 1202.82 128.351C1206.92 128.831 1212.17 124.859 1216.49 123.823C1231.96 120.108 1250.78 128.386 1256 143.665V143.668Z" fill="#F48BAB"/>
<path d="M273.278 453.374C250.247 478.751 218.707 496.738 185.734 504.877C180.846 506.082 174.589 506.486 170.132 507.936C165.624 509.4 159.55 513.067 155.192 515.379C147.952 519.22 140.955 523.616 133.787 527.594C129.38 528.929 125.803 522.75 129.609 519.725C133.236 516.128 148.263 510.667 150.589 507.498C151.297 506.53 151.987 500.923 152.515 499.177C157.739 481.988 173.871 450.116 188.105 439.521C192.008 436.614 194.014 435.072 193.197 441.431C191.497 454.694 172.573 484.802 165.726 497.908C165.441 498.454 164.607 499.84 165.374 500.283C167.345 498.458 170.695 498.24 172.601 496.33C174.89 494.035 176.702 490.311 178.914 487.758C199.673 463.818 234.29 449.141 265.662 451.914C266.922 452.026 273.143 452.316 273.278 453.374Z" fill="#387667"/>
<path d="M1000 25L998.576 50.3372C998.837 79.8973 998.053 109.548 999.304 139H900.364C901.395 129.334 902.221 120.239 899.015 110.802C898.771 109.76 901.577 107.72 902.103 107.72H939.382L933.809 68.7927H962.726C963.451 68.7927 965.166 67.0827 965.166 66.3598V25H1000H1000Z" fill="#B0A726"/>
<g clip-path="url(#clip1_147_389)">
<path d="M639.059 451.933V194.533C567.782 194.533 510 252.154 510 323.233C510 394.313 567.782 451.933 639.059 451.933Z" fill="#339DFF"/>
<path d="M660.61 194.316H672.047V213.614H694.258V194.316H705.694V246.075H694.258V223.703H672.047V246.075H660.61V194.316Z" fill="#DCDCDC"/>
<path d="M733.328 194.316H742.787L765.366 246.075H752.461L747.991 235.108H727.829L723.507 246.075H710.898L733.328 194.316ZM737.727 209.376L731.422 225.457H744.107L737.727 209.376Z" fill="#DCDCDC"/>
<path d="M770.569 194.316H789.921C792.167 194.316 794.432 194.473 796.705 194.789C798.973 195.111 801.013 195.74 802.826 196.69C804.633 197.64 806.096 198.97 807.224 200.675C808.347 202.384 808.906 204.65 808.906 207.475C808.906 210.397 808.088 212.825 806.454 214.748C804.817 216.675 802.651 218.05 799.966 218.88V219.027C801.676 219.268 803.228 219.745 804.62 220.45C806.011 221.16 807.211 222.061 808.213 223.154C809.215 224.252 809.985 225.532 810.522 226.996C811.059 228.455 811.327 230.017 811.327 231.672C811.327 234.403 810.741 236.678 809.569 238.508C808.396 240.337 806.879 241.81 805.023 242.93C803.166 244.054 801.076 244.857 798.754 245.344C796.432 245.83 794.123 246.075 791.827 246.075H770.569L770.569 194.316ZM782.006 215.007H790.288C791.17 215.007 792.033 214.908 792.892 214.712C793.747 214.516 794.517 214.199 795.201 213.762C795.886 213.324 796.432 212.74 796.848 212.008C797.264 211.276 797.474 210.397 797.474 209.376C797.474 208.305 797.242 207.412 796.776 206.707C796.311 206.002 795.711 205.453 794.982 205.061C794.248 204.673 793.416 204.392 792.485 204.222C791.559 204.052 790.655 203.968 789.774 203.968H782.006V215.007ZM782.006 236.424H792.266C793.147 236.424 794.038 236.326 794.942 236.134C795.846 235.938 796.664 235.594 797.398 235.108C798.132 234.621 798.732 233.988 799.197 233.207C799.658 232.431 799.89 231.48 799.89 230.356C799.89 229.138 799.586 228.152 798.973 227.398C798.365 226.639 797.595 226.068 796.664 225.68C795.738 225.287 794.736 225.019 793.662 224.872C792.584 224.729 791.581 224.653 790.655 224.653H782.006V236.424Z" fill="#DCDCDC"/>
<path d="M817.927 194.316H829.363V246.075H817.927V194.316Z" fill="#DCDCDC"/>
<path d="M849.812 204.405H835.006V194.316H876.059V204.405H861.248V246.075H849.812L849.812 204.405Z" fill="#DCDCDC"/>
<path d="M907.505 206.962C906.574 205.793 905.317 204.927 903.729 204.369C902.14 203.807 900.637 203.526 899.223 203.526C898.391 203.526 897.536 203.624 896.654 203.82C895.777 204.017 894.945 204.32 894.162 204.735C893.379 205.15 892.744 205.694 892.256 206.377C891.768 207.06 891.522 207.89 891.522 208.862C891.522 210.424 892.108 211.62 893.285 212.445C894.458 213.275 895.934 213.98 897.719 214.565C899.5 215.149 901.42 215.734 903.474 216.318C905.527 216.907 907.442 217.733 909.228 218.808C911.013 219.879 912.49 221.316 913.662 223.118C914.834 224.921 915.425 227.335 915.425 230.356C915.425 233.234 914.883 235.741 913.81 237.888C912.736 240.034 911.281 241.81 909.447 243.224C907.617 244.639 905.487 245.683 903.071 246.365C900.65 247.048 898.095 247.392 895.411 247.392C892.037 247.392 888.909 246.878 886.028 245.857C883.142 244.83 880.453 243.175 877.96 240.882L886.099 231.966C887.272 233.524 888.748 234.733 890.533 235.585C892.319 236.437 894.162 236.861 896.068 236.861C896.999 236.861 897.939 236.754 898.892 236.536C899.845 236.312 900.699 235.987 901.456 235.545C902.216 235.108 902.825 234.55 903.29 233.867C903.756 233.185 903.988 232.381 903.988 231.453C903.988 229.896 903.389 228.665 902.189 227.763C900.99 226.862 899.491 226.095 897.684 225.456C895.871 224.827 893.916 224.194 891.818 223.556C889.715 222.926 887.759 222.07 885.952 220.999C884.144 219.928 882.64 218.514 881.446 216.76C880.247 215.007 879.647 212.691 879.647 209.813C879.647 207.037 880.197 204.601 881.298 202.504C882.399 200.407 883.862 198.653 885.697 197.239C887.527 195.829 889.643 194.767 892.037 194.062C894.431 193.352 896.901 193 899.442 193C902.373 193 905.21 193.415 907.943 194.24C910.682 195.07 913.152 196.462 915.349 198.408L907.505 206.962Z" fill="#DCDCDC"/>
<path d="M660.367 262.852H695.187V273.378H671.803V283.904H693.428V294.434H671.803V314.612H660.367V262.852Z" fill="#DCDCDC"/>
<path d="M700.61 288.732C700.61 284.591 701.308 280.834 702.699 277.474C704.091 274.11 706.033 271.245 708.53 268.885C711.022 266.52 713.975 264.704 717.398 263.437C720.816 262.17 724.557 261.536 728.615 261.536C732.669 261.536 736.41 262.17 739.828 263.437C743.251 264.704 746.209 266.52 748.701 268.885C751.193 271.245 753.135 274.11 754.527 277.474C755.923 280.834 756.616 284.591 756.616 288.732C756.616 292.873 755.923 296.625 754.527 299.989C753.135 303.354 751.193 306.214 748.701 308.579C746.209 310.944 743.251 312.76 739.828 314.027C736.41 315.294 732.669 315.928 728.615 315.928C724.557 315.928 720.816 315.294 717.398 314.027C713.975 312.76 711.022 310.944 708.53 308.579C706.033 306.214 704.091 303.354 702.699 299.989C701.308 296.625 700.61 292.873 700.61 288.732ZM712.485 288.732C712.485 291.168 712.865 293.399 713.622 295.42C714.378 297.442 715.465 299.2 716.883 300.686C718.302 302.171 720.002 303.327 721.98 304.157C723.958 304.987 726.168 305.397 728.615 305.397C731.058 305.397 733.269 304.987 735.247 304.157C737.229 303.327 738.925 302.171 740.343 300.686C741.761 299.2 742.849 297.442 743.605 295.42C744.361 293.399 744.741 291.168 744.741 288.732C744.741 286.345 744.361 284.127 743.605 282.079C742.849 280.031 741.761 278.264 740.343 276.778C738.925 275.292 737.229 274.137 735.247 273.307C733.269 272.477 731.058 272.062 728.615 272.062C726.168 272.062 723.958 272.477 721.98 273.307C720.002 274.137 718.302 275.292 716.883 276.778C715.465 278.264 714.378 280.031 713.622 282.079C712.865 284.127 712.485 286.345 712.485 288.732Z" fill="#DCDCDC"/>
<path d="M764.388 262.852H784.474C787.114 262.852 789.615 263.107 791.987 263.62C794.358 264.133 796.434 264.985 798.22 266.177C800.001 267.373 801.419 268.983 802.47 271.005C803.522 273.026 804.045 275.547 804.045 278.568C804.045 282.226 803.092 285.332 801.186 287.889C799.28 290.45 796.497 292.069 792.832 292.752L806.028 314.611H792.318L781.467 293.921H775.825V314.611H764.388L764.388 262.852ZM775.825 284.27H782.568C783.593 284.27 784.68 284.234 785.83 284.163C786.975 284.087 788.018 283.868 788.944 283.503C789.875 283.137 790.644 282.566 791.253 281.785C791.866 281.008 792.17 279.911 792.17 278.496C792.17 277.18 791.902 276.131 791.365 275.355C790.828 274.574 790.143 273.976 789.311 273.561C788.479 273.146 787.526 272.865 786.452 272.722C785.378 272.575 784.327 272.504 783.302 272.504H775.825L775.825 284.27Z" fill="#DCDCDC"/>
<path d="M850.673 262.852H860.132L882.71 314.612H869.806L865.336 303.644H845.174L840.852 314.612H828.243L850.673 262.852ZM855.072 277.912L848.767 293.993H861.452L855.072 277.912Z" fill="#DCDCDC"/>
<path d="M659.928 331.389H679.28C681.526 331.389 683.79 331.545 686.063 331.862C688.332 332.183 690.372 332.812 692.184 333.762C693.992 334.713 695.455 336.042 696.583 337.747C697.706 339.456 698.265 341.723 698.265 344.547C698.265 347.47 697.446 349.897 695.813 351.82C694.175 353.748 692.01 355.122 689.325 355.952V356.099C691.034 356.34 692.587 356.817 693.978 357.522C695.37 358.232 696.569 359.133 697.571 360.226C698.574 361.324 699.343 362.605 699.88 364.068C700.417 365.527 700.686 367.089 700.686 368.744C700.686 371.475 700.1 373.751 698.927 375.58C697.755 377.41 696.238 378.882 694.381 380.002C692.524 381.126 690.435 381.929 688.113 382.416C685.79 382.902 683.481 383.148 681.186 383.148H659.928L659.928 331.389ZM671.365 352.079H679.647C680.528 352.079 681.392 351.981 682.251 351.784C683.106 351.588 683.875 351.271 684.56 350.834C685.244 350.397 685.79 349.812 686.206 349.08C686.623 348.349 686.833 347.47 686.833 346.448C686.833 345.377 686.6 344.485 686.135 343.78C685.669 343.075 685.07 342.526 684.341 342.133C683.607 341.745 682.775 341.464 681.844 341.294C680.918 341.125 680.014 341.04 679.132 341.04H671.365V352.079ZM671.365 373.496H681.625C682.506 373.496 683.396 373.398 684.3 373.206C685.204 373.01 686.023 372.666 686.757 372.18C687.491 371.694 688.09 371.06 688.556 370.279C689.016 369.503 689.249 368.553 689.249 367.428C689.249 366.21 688.945 365.224 688.332 364.47C687.723 363.711 686.954 363.14 686.023 362.752C685.097 362.359 684.094 362.092 683.021 361.944C681.942 361.802 680.94 361.726 680.014 361.726H671.365V373.496Z" fill="#339DFF"/>
<path d="M707.872 331.389H743.135V341.914H719.308V351.566H741.815V362.091H719.308V372.617H744.455V383.148H707.872L707.872 331.389Z" fill="#339DFF"/>
<path d="M763.659 341.477H748.853V331.389H789.906V341.477H775.096V383.148H763.659L763.659 341.477Z" fill="#339DFF"/>
<path d="M807.782 341.477H792.976V331.389H834.029V341.477H819.219V383.148H807.782L807.782 341.477Z" fill="#339DFF"/>
<path d="M840.258 331.389H875.521V341.914H851.695V351.566H874.201V362.091H851.695V372.617H876.841V383.148H840.258L840.258 331.389Z" fill="#339DFF"/>
<path d="M883.277 331.389H903.363C906.003 331.389 908.504 331.643 910.875 332.156C913.247 332.669 915.323 333.521 917.108 334.713C918.889 335.909 920.307 337.519 921.359 339.541C922.41 341.562 922.934 344.083 922.934 347.104C922.934 350.762 921.981 353.868 920.075 356.425C918.169 358.986 915.386 360.606 911.721 361.288L924.916 383.147H911.206L900.356 362.457H894.714V383.147H883.277L883.277 331.389ZM894.714 352.806H901.457C902.481 352.806 903.568 352.77 904.718 352.699C905.864 352.623 906.906 352.405 907.833 352.039C908.763 351.673 909.533 351.102 910.141 350.321C910.754 349.544 911.059 348.447 911.059 347.032C911.059 345.716 910.79 344.667 910.253 343.891C909.716 343.11 909.032 342.512 908.2 342.097C907.367 341.682 906.414 341.401 905.34 341.259C904.267 341.111 903.215 341.04 902.19 341.04H894.714L894.714 352.806Z" fill="#339DFF"/>
<path d="M655.182 399.925H667.648L675.93 433.113H676.078L686.929 399.925H697.555L708.334 433.992H708.477L717.203 399.925H728.787L713.61 451.684H703.421L691.985 415.863H691.837L680.4 451.684H670.579L655.182 399.925Z" fill="#DCDCDC"/>
<path d="M731.131 425.804C731.131 421.663 731.829 417.907 733.221 414.547C734.613 411.182 736.554 408.318 739.051 405.957C741.543 403.592 744.497 401.776 747.92 400.509C751.338 399.242 755.079 398.608 759.137 398.608C763.191 398.608 766.932 399.242 770.35 400.509C773.773 401.776 776.73 403.592 779.223 405.957C781.715 408.318 783.657 411.182 785.048 414.547C786.444 417.907 787.138 421.663 787.138 425.804C787.138 429.945 786.444 433.697 785.048 437.062C783.657 440.426 781.715 443.286 779.223 445.651C776.73 448.016 773.773 449.832 770.35 451.099C766.931 452.366 763.191 453 759.137 453C755.079 453 751.338 452.366 747.92 451.099C744.497 449.832 741.543 448.016 739.051 445.651C736.554 443.286 734.613 440.426 733.221 437.062C731.829 433.697 731.131 429.945 731.131 425.804ZM743.007 425.804C743.007 428.24 743.387 430.471 744.143 432.493C744.899 434.514 745.987 436.272 747.405 437.758C748.823 439.244 750.524 440.399 752.501 441.229C754.479 442.059 756.689 442.47 759.137 442.47C761.58 442.47 763.79 442.059 765.768 441.229C767.75 440.399 769.446 439.244 770.865 437.758C772.283 436.272 773.37 434.514 774.126 432.493C774.883 430.471 775.263 428.241 775.263 425.804C775.263 423.417 774.883 421.199 774.126 419.151C773.37 417.103 772.283 415.336 770.865 413.851C769.446 412.365 767.75 411.209 765.768 410.379C763.79 409.549 761.58 409.134 759.137 409.134C756.689 409.134 754.479 409.549 752.501 410.379C750.524 411.209 748.823 412.365 747.405 413.851C745.987 415.336 744.899 417.103 744.143 419.151C743.387 421.199 743.007 423.417 743.007 425.804Z" fill="#DCDCDC"/>
<path d="M794.91 399.925H814.996C817.636 399.925 820.137 400.179 822.508 400.692C824.88 401.205 826.956 402.058 828.741 403.249C830.522 404.445 831.941 406.055 832.992 408.077C834.043 410.098 834.567 412.619 834.567 415.64C834.567 419.299 833.614 422.404 831.708 424.961C829.802 427.522 827.019 429.142 823.354 429.824L836.549 451.684H822.84L811.989 430.993H806.347V451.684H794.91L794.91 399.925ZM806.347 421.342H813.09C814.114 421.342 815.202 421.307 816.352 421.235C817.497 421.159 818.54 420.941 819.466 420.575C820.397 420.209 821.166 419.638 821.775 418.857C822.388 418.081 822.692 416.983 822.692 415.568C822.692 414.252 822.424 413.204 821.887 412.427C821.35 411.646 820.665 411.048 819.833 410.633C819.001 410.219 818.047 409.937 816.974 409.795C815.9 409.647 814.848 409.576 813.824 409.576H806.347L806.347 421.342Z" fill="#DCDCDC"/>
<path d="M842.854 399.925H854.291V441.153H875.477V451.684H842.854V399.925Z" fill="#DCDCDC"/>
<path d="M881.781 399.925H898.936C903.089 399.925 907.035 400.389 910.776 401.312C914.512 402.24 917.774 403.74 920.561 405.81C923.344 407.88 925.555 410.575 927.197 413.886C928.83 417.201 929.649 421.222 929.649 425.951C929.649 430.141 928.857 433.831 927.268 437.026C925.68 440.216 923.541 442.898 920.852 445.067C918.163 447.235 915.062 448.882 911.545 450.001C908.024 451.121 904.332 451.684 900.476 451.684H881.781L881.781 399.925ZM893.218 441.153H899.156C901.791 441.153 904.247 440.89 906.521 440.35C908.794 439.815 910.762 438.927 912.422 437.682C914.082 436.442 915.393 434.808 916.346 432.783C917.299 430.761 917.774 428.289 917.774 425.367C917.774 422.832 917.299 420.624 916.346 418.75C915.393 416.871 914.109 415.327 912.498 414.105C910.883 412.887 908.99 411.976 906.816 411.365C904.641 410.758 902.355 410.45 899.961 410.45H893.218L893.218 441.153Z" fill="#DCDCDC"/>
</g>
</g>
<defs>
<clipPath id="clip0_147_389">
<rect width="1440" height="572" rx="12" fill="white"/>
</clipPath>
<clipPath id="clip1_147_389">
<rect width="419.649" height="260" fill="white" transform="translate(510 193)"/>
</clipPath>
</defs>
</svg>
